<?xml version="1.0" standalone="no"?>
<!DOCTYPE svg PUBLIC "-//W3C//DTD SVG 20010904//EN"
 "http://www.w3.org/TR/2001/REC-SVG-20010904/DTD/svg10.dtd">
<svg version="1.0" xmlns="http://www.w3.org/2000/svg"
 width="1389.000000pt" height="1389.000000pt" viewBox="0 0 1389.000000 1389.000000"
 preserveAspectRatio="xMidYMid meet">
<metadata>
Created by potrace 1.11, written by Peter Selinger 2001-2013
</metadata>
<g transform="translate(0.000000,1389.000000) scale(0.100000,-0.100000)"
fill="#000000" stroke="none">
<path d="M7833 13685 c0 -8 4 -12 9 -9 5 3 6 10 3 15 -9 13 -12 11 -12 -6z"/>
<path d="M8574 13599 c-1 -18 3 -26 10 -22 6 4 5 -1 -3 -10 -9 -11 -10 -17 -2
-17 6 0 11 -5 11 -11 0 -5 -5 -7 -12 -3 -7 5 -8 3 -4 -5 5 -7 14 -10 21 -8 9
4 12 -7 11 -39 -1 -31 3 -44 13 -44 11 0 11 -3 1 -15 -7 -9 -10 -18 -6 -22 3
-3 6 -1 6 6 0 9 4 9 14 -1 10 -9 11 -15 2 -20 -7 -5 -6 -8 4 -8 13 0 13 -1 0
-10 -12 -8 -12 -10 -1 -10 11 0 11 -3 0 -17 -12 -14 -12 -16 0 -8 11 6 13 2 9
-19 -3 -15 -3 -25 0 -22 2 3 11 -1 18 -9 16 -15 19 -29 5 -21 -5 4 -7 -3 -4
-14 3 -11 10 -17 17 -14 6 3 2 -2 -8 -10 -20 -16 -20 -16 0 -16 16 0 17 -2 4
-10 -13 -9 -13 -10 0 -11 8 -1 19 -1 23 0 5 1 6 -3 2 -9 -3 -6 -11 -8 -16 -5
-5 4 -9 1 -9 -4 0 -6 7 -11 16 -11 14 0 15 -2 3 -17 -8 -9 -9 -14 -3 -10 7 4
15 0 18 -9 3 -8 2 -12 -4 -9 -6 3 -10 1 -10 -4 0 -6 5 -11 10 -11 7 0 7 -6 1
-18 -10 -19 4 -56 19 -47 4 3 6 -5 3 -17 -4 -19 -3 -20 6 -8 14 19 14 5 1 -20
-6 -12 -7 -21 0 -25 5 -3 6 -13 3 -22 -5 -11 -3 -14 6 -8 10 5 11 3 4 -11 -17
-34 -3 -66 25 -58 10 4 13 2 7 -3 -13 -11 -14 -76 0 -85 6 -5 7 -11 0 -15 -13
-11 -18 -36 -5 -28 11 7 14 -8 3 -19 -11 -10 -12 -37 -2 -30 5 3 7 9 5 13 -3
4 2 8 10 8 10 0 11 -4 4 -11 -5 -5 -10 -17 -10 -26 0 -13 1 -13 10 0 5 8 10
10 10 5 0 -6 -6 -17 -12 -24 -10 -11 -10 -13 0 -7 7 5 12 1 12 -9 0 -10 -5
-13 -12 -9 -8 5 -7 0 2 -11 8 -10 14 -27 12 -37 -2 -11 2 -26 9 -34 10 -12 9
-13 -7 -8 -18 5 -18 5 0 -10 18 -14 15 -20 -6 -17 -4 0 -5 -6 -2 -14 4 -8 11
-12 18 -8 6 4 5 -1 -3 -10 -10 -13 -10 -17 -1 -17 9 0 9 -4 -1 -17 -12 -15
-12 -16 3 -10 10 3 20 1 24 -5 4 -7 3 -8 -4 -4 -13 8 -17 -6 -5 -18 13 -13 11
-35 -3 -29 -8 3 -14 0 -14 -6 0 -6 6 -11 13 -11 7 0 13 -9 14 -21 2 -18 0 -19
-15 -7 -15 11 -15 11 -5 -3 7 -9 9 -20 5 -24 -4 -5 -1 -5 6 -1 7 4 12 1 12 -9
0 -10 -5 -13 -12 -9 -10 6 -10 5 -1 -7 6 -8 10 -29 9 -47 -1 -17 1 -37 5 -44
4 -7 3 -20 -2 -29 -6 -12 -5 -20 2 -24 6 -5 4 -12 -8 -22 -10 -8 -13 -12 -7
-9 8 4 12 -7 12 -32 -1 -20 3 -45 7 -54 5 -13 2 -18 -11 -18 -17 0 -16 -1 2
-16 10 -8 13 -13 7 -9 -11 5 -18 -8 -10 -18 1 -2 -5 -12 -13 -23 -14 -18 -14
-18 3 -5 14 11 17 11 18 0 1 -8 0 -18 -1 -24 -2 -5 -2 -18 -2 -28 0 -9 -3 -15
-8 -12 -6 3 -7 -1 -4 -9 3 -9 9 -14 14 -11 4 2 5 -7 2 -20 -2 -15 -9 -22 -16
-18 -6 3 -3 -3 7 -14 13 -14 15 -23 7 -28 -8 -5 -8 -11 -1 -19 6 -7 8 -16 4
-19 -3 -4 -7 -19 -9 -34 -1 -16 -3 -29 -4 -30 -7 -8 -5 -30 4 -42 8 -11 8 -13
-2 -7 -10 6 -12 -1 -9 -26 2 -19 6 -39 10 -45 7 -11 -16 -37 -25 -27 -3 3 -8
-9 -10 -25 -2 -16 -1 -28 4 -25 10 6 10 6 -1 -34 -7 -23 -6 -32 2 -32 7 0 6
-4 -3 -10 -8 -5 -10 -10 -4 -10 6 0 11 -6 11 -14 0 -8 -6 -12 -15 -8 -10 3
-13 1 -8 -6 3 -6 2 -13 -4 -17 -6 -4 -8 -10 -5 -15 3 -5 1 -12 -5 -15 -8 -5
-7 -12 2 -23 7 -9 8 -13 2 -9 -7 4 -11 -5 -11 -23 0 -18 4 -27 11 -23 6 4 5
-1 -3 -10 -7 -9 -11 -23 -8 -31 3 -8 1 -17 -6 -20 -9 -3 -9 -5 1 -5 6 -1 12
-6 12 -12 0 -5 -4 -7 -10 -4 -5 3 -10 1 -10 -5 0 -6 -5 -8 -12 -4 -8 5 -9 2
-4 -12 5 -10 8 -26 7 -34 -1 -8 -1 -25 -1 -37 0 -12 -5 -25 -11 -29 -8 -4 -7
-9 2 -15 10 -6 7 -9 -11 -9 -20 0 -22 -2 -10 -10 13 -8 13 -11 1 -22 -11 -11
-13 -11 -6 1 5 10 4 12 -4 7 -7 -5 -8 -13 -2 -23 5 -10 4 -28 -5 -48 -9 -21
-10 -35 -3 -42 6 -6 4 -15 -8 -24 -16 -13 -17 -12 -4 4 9 11 10 17 2 17 -6 0
-11 -3 -12 -7 0 -5 -2 -16 -4 -26 -2 -11 1 -15 8 -10 8 5 8 2 0 -9 -7 -8 -10
-18 -6 -21 3 -4 1 -7 -7 -7 -10 0 -10 -4 1 -17 12 -14 12 -16 0 -8 -11 6 -13
4 -7 -10 6 -16 4 -16 -11 -4 -11 9 -14 10 -9 2 4 -8 2 -13 -6 -13 -8 0 -9 -3
-2 -8 12 -8 14 -53 2 -46 -4 3 -8 0 -8 -5 0 -6 5 -11 12 -11 6 0 8 -3 4 -7 -4
-5 -13 -8 -18 -8 -6 0 -13 -6 -16 -14 -3 -8 0 -11 7 -7 7 5 9 1 5 -8 -3 -9
-11 -16 -18 -16 -6 0 -4 -5 4 -10 13 -8 12 -10 -2 -10 -10 0 -18 -4 -18 -10 0
-5 5 -10 10 -10 6 0 10 -5 10 -12 0 -6 -3 -9 -6 -5 -4 3 -13 0 -20 -8 -17 -17
-18 -29 -1 -19 9 6 9 4 -1 -8 -7 -8 -9 -23 -6 -32 4 -11 2 -16 -6 -14 -7 2
-15 -3 -18 -11 -3 -9 0 -11 8 -6 9 6 11 4 6 -4 -5 -7 -13 -10 -20 -8 -7 3 -13
-5 -14 -19 -1 -13 2 -24 6 -24 5 0 9 -7 9 -15 0 -10 -4 -12 -12 -5 -9 7 -16 6
-25 -5 -7 -8 -9 -15 -6 -15 4 0 2 -10 -5 -21 -8 -15 -8 -19 0 -15 7 5 10 0 8
-11 -4 -29 -18 -45 -33 -39 -15 6 -15 -15 1 -26 6 -5 5 -8 -4 -8 -9 0 -11 -8
-6 -27 6 -27 6 -27 -9 -8 l-15 20 3 -20 c2 -11 -4 -23 -13 -27 -14 -6 -14 -7
2 -7 15 -1 16 -4 7 -22 -7 -11 -18 -18 -25 -15 -9 3 -12 0 -8 -9 3 -8 10 -12
16 -8 6 4 7 1 3 -6 -5 -7 -15 -10 -23 -6 -12 4 -13 2 -5 -8 9 -10 8 -17 -1
-27 -10 -10 -9 -12 3 -6 9 5 9 2 -2 -7 -10 -8 -14 -18 -10 -22 4 -5 -1 -5 -10
-2 -15 5 -16 2 -8 -18 7 -18 5 -29 -8 -42 -9 -11 -13 -12 -7 -3 6 10 2 8 -13
-4 -22 -19 -30 -32 -13 -22 5 3 11 -3 14 -15 4 -16 3 -18 -8 -9 -10 8 -15 8
-21 -1 -4 -7 -3 -9 3 -6 6 4 13 0 17 -8 3 -8 2 -14 -2 -14 -4 1 -16 1 -26 0
-20 -1 -20 -1 0 -17 10 -8 14 -13 7 -10 -6 4 -14 2 -18 -4 -3 -5 0 -10 7 -11
7 0 3 -4 -10 -9 -17 -7 -21 -16 -18 -34 4 -20 1 -24 -12 -19 -15 6 -16 5 -2
-12 12 -15 12 -17 1 -10 -11 6 -13 4 -7 -10 5 -14 4 -16 -7 -7 -10 9 -14 8
-14 -3 0 -8 4 -15 9 -15 5 0 6 -5 3 -10 -4 -6 -11 -8 -16 -5 -5 3 -6 0 -3 -8
3 -8 0 -18 -7 -23 -7 -4 -10 -3 -5 4 3 6 2 13 -2 16 -5 3 -8 -10 -7 -29 1 -26
-2 -32 -10 -25 -9 8 -11 3 -7 -17 5 -26 4 -27 -13 -13 -17 14 -18 14 -6 -7 8
-16 8 -23 1 -23 -6 0 -8 -4 -5 -10 3 -5 -2 -10 -12 -10 -14 0 -15 -2 -5 -9 11
-6 10 -10 -4 -15 -16 -6 -16 -8 -4 -16 13 -8 12 -10 -2 -10 -11 0 -15 -5 -12
-14 3 -8 -3 -16 -16 -19 -12 -3 -19 -10 -16 -16 4 -5 2 -13 -4 -16 -8 -5 -7
-11 1 -21 6 -8 9 -17 5 -21 -3 -3 -6 -1 -6 5 0 6 -7 9 -15 6 -8 -4 -15 -10
-15 -16 0 -5 5 -6 11 -2 8 5 8 1 0 -13 -6 -11 -7 -24 -3 -28 4 -4 -4 -2 -18 5
-22 12 -24 12 -12 -2 10 -13 10 -17 -3 -22 -8 -3 -15 -10 -15 -15 0 -6 8 -7
17 -4 15 6 16 5 3 -9 -8 -9 -17 -16 -20 -16 -18 1 -21 -4 -9 -19 8 -9 9 -14 4
-11 -6 4 -19 -1 -30 -9 -16 -13 -17 -15 -2 -10 9 4 17 2 17 -3 0 -9 -12 -13
-30 -12 -3 0 -5 -15 -5 -34 1 -25 -1 -31 -11 -24 -13 12 -29 -14 -18 -31 3 -5
0 -9 -6 -9 -6 0 -9 -4 -6 -9 3 -5 -4 -11 -16 -14 -18 -5 -19 -8 -8 -22 11 -13
11 -19 -3 -32 -14 -14 -18 -14 -34 -2 -16 12 -17 12 -6 -2 8 -10 9 -19 3 -25
-5 -5 -11 -19 -13 -31 -2 -13 -7 -26 -12 -30 -4 -5 -5 -3 -1 4 3 6 2 14 -3 18
-11 6 -7 -27 5 -46 4 -7 -3 -6 -17 2 -23 12 -23 11 -9 -6 14 -17 13 -18 -5
-11 -11 4 -16 4 -12 0 4 -4 1 -14 -6 -22 -6 -9 -7 -13 -1 -9 6 3 11 0 11 -7 0
-10 -9 -13 -26 -10 -14 3 -21 1 -16 -3 6 -5 17 -17 25 -28 11 -16 11 -17 0 -7
-21 18 -29 15 -25 -13 2 -20 0 -23 -12 -14 -11 10 -12 8 -7 -5 4 -9 3 -16 -2
-15 -21 4 -24 -2 -13 -23 11 -21 11 -22 -5 -9 -14 12 -16 12 -10 -3 4 -10 0
-18 -11 -22 -13 -5 -14 -9 -3 -15 10 -7 9 -9 -5 -9 -10 0 -15 -5 -12 -10 4 -6
11 -7 17 -4 7 4 8 2 4 -4 -4 -6 -13 -9 -21 -5 -11 4 -13 1 -8 -13 5 -13 3 -15
-7 -9 -8 5 -11 4 -7 -2 4 -6 -1 -19 -9 -29 -9 -10 -12 -13 -8 -5 5 10 3 12 -5
7 -9 -6 -9 -11 -1 -21 8 -9 8 -15 0 -20 -6 -3 -8 -10 -5 -15 3 -5 1 -11 -4
-14 -5 -4 -13 -1 -17 5 -5 8 -3 9 6 4 9 -6 11 -4 6 4 -5 7 -11 9 -15 6 -9 -10
-8 -29 4 -37 6 -5 2 -8 -8 -8 -11 0 -17 -6 -14 -12 2 -7 -3 -19 -12 -26 -13
-11 -13 -12 -1 -7 10 4 9 2 -2 -8 -20 -16 -25 -42 -6 -31 7 4 8 3 4 -5 -4 -6
-12 -8 -18 -5 -7 5 -9 1 -5 -9 4 -11 2 -14 -7 -11 -19 7 -32 -16 -15 -27 11
-7 10 -9 -5 -9 -13 0 -17 -5 -13 -20 3 -11 -2 -25 -12 -32 -14 -12 -15 -11 -2
5 7 9 9 17 3 17 -16 0 -22 -26 -9 -40 9 -9 8 -11 -3 -8 -9 1 -16 1 -16 -2 0
-3 -6 -16 -13 -29 -7 -13 -8 -21 -3 -17 6 4 10 -2 9 -13 -1 -16 -4 -18 -16 -8
-12 10 -13 9 -6 -2 6 -11 4 -13 -10 -7 -15 5 -16 4 -5 -9 10 -12 10 -15 -1
-15 -11 0 -11 -2 -1 -8 7 -5 10 -16 6 -25 -3 -9 -10 -14 -15 -11 -5 3 -9 -2
-9 -10 0 -9 -8 -16 -17 -16 -15 0 -14 -2 3 -16 10 -8 14 -13 7 -10 -6 4 -14 2
-18 -4 -3 -5 -1 -10 4 -10 6 0 11 -4 11 -9 0 -5 -10 -7 -22 -4 -23 5 -23 5 -3
-11 l20 -16 -20 7 c-18 6 -19 5 -5 -12 8 -10 10 -16 4 -12 -7 4 -15 0 -18 -9
-3 -8 -2 -13 3 -9 5 3 8 -3 7 -12 -2 -10 -8 -18 -14 -18 -7 0 -11 -3 -9 -6 1
-3 -4 -13 -11 -22 -9 -10 -10 -17 -2 -22 15 -10 -8 -48 -26 -41 -12 4 -12 2
-4 -14 7 -13 7 -20 1 -20 -6 0 -8 -7 -5 -15 4 -8 1 -15 -6 -15 -6 0 -8 -5 -5
-10 3 -6 0 -17 -9 -25 -10 -11 -14 -32 -12 -74 2 -50 0 -57 -12 -45 -17 18
-28 18 -14 1 9 -10 7 -19 -5 -36 -13 -19 -13 -25 -2 -32 8 -5 9 -9 4 -9 -6 0
-11 -9 -12 -20 -1 -11 2 -18 6 -16 4 3 8 -1 8 -8 0 -9 -8 -11 -21 -8 -20 5
-20 5 -3 -12 20 -20 23 -31 5 -20 -8 5 -9 2 -5 -9 3 -9 1 -19 -5 -23 -7 -5 -8
-2 -3 6 5 9 4 11 -3 6 -7 -4 -9 -19 -5 -36 3 -19 0 -36 -8 -47 -10 -11 -10
-14 -1 -9 7 4 12 1 12 -8 0 -9 -6 -16 -12 -16 -9 0 -9 -3 1 -9 11 -7 12 -13 4
-23 -16 -20 -24 -90 -10 -82 7 3 3 -2 -7 -10 -14 -11 -15 -16 -6 -16 9 0 8 -5
-6 -16 -10 -8 -13 -13 -6 -9 6 3 12 1 12 -5 0 -6 5 -8 12 -4 7 4 8 3 4 -5 -4
-6 -13 -8 -19 -4 -7 4 -5 -2 3 -12 9 -11 10 -16 3 -11 -8 4 -13 1 -13 -8 0 -9
6 -16 13 -17 6 0 3 -4 -8 -9 -11 -5 -14 -9 -7 -9 9 -1 10 -6 3 -18 -7 -13 -5
-23 7 -36 15 -17 15 -17 -3 -11 -14 6 -16 4 -10 -6 5 -8 9 -35 9 -60 0 -29 5
-49 15 -58 14 -11 14 -11 -1 -6 -10 3 -18 2 -18 -4 0 -6 6 -12 12 -14 8 -3 11
-20 9 -46 -1 -28 2 -42 9 -42 9 0 9 -5 -1 -17 -8 -9 -9 -14 -3 -10 7 4 12 -2
12 -18 0 -14 -4 -23 -8 -20 -3 2 -7 -2 -7 -10 0 -8 4 -12 10 -8 5 3 8 -8 7
-23 -1 -16 -1 -32 0 -36 1 -5 3 -14 4 -20 1 -7 8 -12 15 -10 8 2 11 -3 8 -13
-4 -8 -1 -15 5 -15 9 0 9 -3 0 -12 -17 -17 -15 -28 6 -29 10 0 12 -3 4 -6 -6
-2 -9 -9 -6 -15 4 -6 0 -14 -7 -19 -9 -6 -10 -9 -2 -9 7 0 17 8 22 18 8 14 10
11 7 -15 -2 -18 1 -33 5 -33 5 0 9 -5 9 -11 0 -6 -6 -7 -12 -2 -7 4 -5 -5 5
-20 10 -15 15 -33 10 -40 -4 -8 -1 -7 10 1 15 13 16 10 13 -22 -2 -35 13 -63
28 -49 4 4 4 -1 0 -11 -4 -11 -2 -21 7 -27 12 -8 12 -11 -1 -19 -8 -5 -10 -10
-5 -10 6 0 17 6 24 12 11 11 12 9 2 -8 -8 -17 -7 -25 4 -34 8 -7 12 -16 9 -21
-3 -5 1 -6 9 -3 8 3 18 0 23 -7 4 -7 3 -10 -2 -6 -6 3 -10 -5 -10 -18 0 -13 3
-22 7 -19 12 7 39 -7 33 -17 -3 -5 -1 -9 5 -9 5 0 8 -9 6 -20 -2 -11 4 -25 16
-33 10 -8 16 -17 11 -22 -4 -4 1 -5 10 -2 13 4 15 2 11 -10 -5 -12 -2 -15 10
-10 10 4 14 2 11 -6 -2 -7 2 -21 10 -32 14 -19 15 -19 10 5 -4 23 -3 23 7 -3
6 -15 15 -25 20 -21 5 3 9 2 8 -3 -4 -21 2 -43 12 -43 5 0 7 6 3 13 -6 8 -3 8
9 -1 9 -8 15 -19 14 -25 -1 -7 6 -11 15 -11 11 1 14 -4 11 -13 -3 -8 -1 -18 6
-22 9 -6 8 -11 -4 -21 -13 -11 -15 -10 -10 2 4 9 0 15 -9 15 -8 0 -12 -6 -9
-14 3 -7 0 -19 -6 -27 -6 -7 -8 -15 -5 -19 3 -3 -3 -3 -14 0 -11 3 -29 0 -39
-7 -16 -9 -15 -10 7 -4 24 6 24 5 5 -9 -10 -8 -31 -13 -45 -10 -24 4 -25 4 -5
-12 11 -9 14 -14 8 -10 -7 3 -13 2 -13 -4 0 -5 -11 -8 -24 -5 -14 2 -27 0 -31
-6 -3 -6 1 -7 9 -4 9 3 16 1 16 -6 0 -6 5 -8 12 -4 7 4 8 3 4 -4 -4 -6 -14 -8
-23 -5 -11 4 -14 2 -9 -5 4 -7 0 -10 -13 -7 -15 3 -18 -1 -14 -18 4 -17 2 -19
-5 -8 -9 12 -13 13 -27 1 -9 -7 -13 -20 -10 -28 4 -12 3 -13 -10 -2 -12 10
-15 10 -15 -4 0 -11 -5 -14 -12 -10 -7 5 -9 2 -5 -8 4 -12 0 -15 -18 -13 -15
1 -22 -2 -18 -8 4 -6 0 -8 -9 -5 -8 4 -15 1 -15 -7 0 -7 7 -11 16 -8 14 4 14
3 1 -5 -10 -8 -18 -8 -27 -1 -9 8 -16 2 -28 -23 -8 -18 -13 -24 -10 -13 4 15
-1 13 -19 -9 -14 -17 -22 -34 -19 -39 3 -6 1 -7 -6 -3 -9 6 -9 12 1 24 11 15
11 15 -3 5 -9 -7 -19 -10 -22 -7 -4 4 -5 -3 -2 -14 2 -12 -1 -25 -7 -28 -7 -4
-8 -2 -4 4 4 7 3 12 -2 12 -5 0 -14 -10 -21 -22 -11 -23 -11 -23 -6 2 5 21 4
22 -5 7 -6 -10 -16 -14 -23 -10 -9 5 -8 2 0 -9 16 -18 5 -32 -14 -17 -10 9
-13 7 -13 -11 0 -16 -4 -20 -15 -16 -8 3 -15 1 -15 -4 0 -5 -7 -7 -15 -4 -21
8 -19 -6 3 -22 16 -12 16 -12 -3 -11 -11 1 -23 7 -27 12 -5 6 -8 3 -8 -7 0 -9
-5 -20 -12 -24 -7 -5 -9 -2 -4 7 4 8 -1 3 -12 -10 -11 -14 -24 -21 -31 -16 -8
4 -14 -1 -18 -14 -5 -18 -8 -19 -21 -9 -10 8 -13 9 -9 1 4 -6 4 -19 1 -28 -5
-13 -8 -14 -15 -3 -7 11 -9 11 -9 -1 0 -7 -6 -11 -15 -7 -8 3 -14 2 -14 -2 3
-20 -2 -32 -13 -30 -7 2 -12 -3 -10 -11 3 -12 1 -12 -14 0 -11 9 -15 9 -10 2
4 -7 2 -21 -4 -30 -9 -14 -10 -14 -7 -2 3 9 -1 16 -9 16 -7 0 -12 -3 -10 -6 2
-3 -6 -15 -17 -26 -11 -11 -16 -14 -12 -6 5 9 4 12 -3 7 -7 -4 -12 -14 -12
-23 0 -10 -6 -13 -16 -9 -12 4 -15 2 -10 -9 3 -8 1 -15 -3 -15 -5 0 -12 6 -14
13 -3 7 -6 5 -6 -5 -1 -10 -6 -18 -12 -18 -5 0 -7 5 -3 12 4 7 3 8 -5 4 -6 -4
-9 -11 -6 -16 4 -7 -18 -22 -37 -24 -3 -1 -10 -5 -15 -10 -4 -5 -3 -7 3 -3 6
3 11 0 11 -7 0 -8 -8 -11 -20 -8 -14 4 -18 2 -12 -7 6 -10 3 -11 -14 -2 -25
14 -28 3 -4 -14 15 -11 14 -12 -10 -10 -15 2 -27 -1 -27 -6 0 -6 -5 -7 -12 -3
-8 5 -9 2 -5 -10 5 -14 3 -17 -8 -12 -8 3 -15 1 -15 -5 0 -6 -5 -7 -12 -3 -6
4 -8 3 -5 -3 4 -6 -4 -20 -17 -32 -18 -17 -26 -19 -31 -10 -6 8 -4 10 5 4 9
-5 11 -4 6 4 -10 16 -26 4 -19 -15 3 -8 2 -14 -3 -13 -16 2 -54 -13 -54 -22 0
-5 8 -6 18 -3 14 5 14 4 2 -4 -8 -6 -18 -8 -22 -6 -5 3 -13 -5 -18 -18 -9 -21
-10 -20 -5 7 6 28 6 29 -8 10 -9 -11 -13 -23 -11 -27 3 -4 -3 -5 -12 -1 -14 5
-16 3 -11 -12 6 -15 5 -16 -8 -5 -14 11 -17 10 -21 -8 -4 -14 -11 -19 -22 -15
-12 5 -14 2 -9 -12 7 -16 5 -16 -10 -4 -10 9 -14 9 -10 2 5 -8 -1 -15 -17 -19
-16 -4 -23 -11 -19 -20 4 -10 0 -12 -13 -7 -14 5 -16 3 -11 -11 4 -9 3 -15 -2
-12 -5 3 -14 -1 -21 -9 -7 -8 -16 -12 -21 -10 -4 3 -17 -3 -28 -14 -11 -11
-22 -17 -25 -14 -3 4 -6 1 -6 -6 0 -7 -4 -9 -10 -6 -5 3 -10 -1 -10 -9 0 -8
-5 -18 -12 -22 -7 -4 -8 -3 -4 4 17 27 -4 9 -24 -20 -12 -18 -19 -25 -16 -15
8 24 -3 21 -26 -8 -11 -14 -25 -22 -31 -18 -7 4 -8 0 -4 -11 4 -9 3 -15 -1
-13 -15 9 -54 -13 -48 -28 3 -8 1 -15 -3 -15 -5 0 -12 6 -14 13 -3 7 -6 4 -6
-6 -1 -10 -5 -15 -11 -12 -5 3 -10 2 -10 -4 0 -6 -7 -8 -15 -5 -11 5 -13 2 -9
-9 4 -12 1 -15 -15 -12 -11 2 -24 -1 -27 -7 -4 -7 -2 -8 4 -4 7 4 12 2 12 -5
0 -7 -8 -9 -21 -6 -17 5 -18 3 -7 -10 11 -14 10 -15 -7 -10 -11 4 -27 2 -35
-4 -13 -9 -12 -10 3 -5 11 3 16 2 12 -4 -3 -6 -15 -10 -27 -10 -15 0 -18 -4
-14 -17 4 -10 4 -14 0 -10 -4 4 -14 1 -22 -6 -11 -8 -14 -8 -9 0 4 6 3 15 -3
18 -6 4 -10 3 -9 -2 4 -22 -3 -31 -21 -28 -11 2 -22 -1 -26 -6 -3 -5 -1 -8 4
-7 6 2 10 -1 10 -7 0 -5 -5 -9 -10 -7 -6 2 -8 -3 -5 -11 4 -10 -1 -13 -19 -9
-17 3 -24 0 -24 -11 0 -9 -4 -19 -10 -22 -6 -4 -7 1 -4 12 5 16 3 15 -11 -2
-9 -11 -18 -19 -21 -17 -3 2 -9 0 -12 -4 -4 -4 -2 -4 5 0 6 3 14 2 17 -3 3 -5
-8 -8 -24 -7 -20 1 -30 -3 -30 -12 0 -7 5 -10 12 -6 6 4 8 3 5 -4 -4 -5 -16
-8 -27 -5 -12 3 -20 0 -20 -6 0 -7 -5 -9 -12 -5 -9 6 -9 3 0 -9 12 -14 11 -16
-8 -12 -17 3 -20 1 -15 -12 5 -14 2 -13 -16 3 -12 10 -19 14 -16 7 4 -6 4 -18
1 -27 -5 -13 -9 -14 -20 -5 -12 10 -13 9 -8 -5 4 -11 1 -16 -11 -16 -10 0 -13
5 -9 12 4 7 3 8 -5 4 -9 -6 -9 -11 1 -24 10 -12 10 -14 1 -8 -7 4 -13 3 -13
-2 0 -6 -8 -9 -17 -8 -11 0 -18 -6 -17 -15 1 -9 -5 -16 -12 -16 -7 0 -10 5 -7
11 4 6 0 5 -9 -1 -8 -7 -18 -9 -23 -5 -4 4 -2 -4 5 -18 12 -22 12 -24 -2 -12
-13 10 -17 10 -22 -3 -3 -9 -10 -13 -16 -10 -5 3 -10 -2 -10 -12 0 -14 -2 -15
-9 -5 -6 11 -10 10 -15 -3 -4 -11 -12 -15 -22 -11 -12 5 -15 2 -10 -10 5 -12
2 -15 -10 -10 -14 5 -15 4 -5 -8 9 -11 9 -16 0 -22 -7 -4 -9 -3 -6 3 7 12 -17
25 -27 16 -3 -4 -6 -16 -6 -27 0 -14 -3 -17 -8 -9 -6 10 -12 8 -23 -5 -8 -9
-17 -21 -19 -27 -3 -5 -9 -9 -14 -7 -4 1 -16 -3 -25 -10 -14 -12 -15 -11 -2 5
8 10 21 15 30 12 12 -5 13 -3 4 6 -9 9 -18 7 -38 -10 -15 -11 -31 -18 -36 -15
-5 3 -6 -2 -2 -11 5 -13 7 -14 14 -3 5 7 9 8 9 2 0 -20 -22 -33 -41 -23 -15 7
-17 6 -13 -6 4 -8 2 -15 -4 -15 -6 0 -12 5 -14 10 -2 6 -9 1 -15 -10 -11 -17
-10 -19 5 -14 9 3 4 -3 -13 -12 -16 -10 -39 -18 -50 -18 -11 -1 -31 -9 -45
-20 -14 -10 -17 -16 -8 -13 10 4 20 2 23 -3 6 -9 -7 -13 -47 -13 -13 0 -15 -4
-9 -16 8 -14 4 -16 -25 -15 -18 1 -33 -1 -32 -5 2 -20 -3 -31 -14 -25 -7 5 -9
2 -6 -8 5 -11 0 -14 -20 -11 -15 2 -21 0 -14 -3 20 -9 14 -23 -9 -19 -16 3
-19 0 -15 -12 6 -14 4 -14 -11 -2 -15 12 -16 12 -10 -5 7 -17 6 -17 -10 -5
-11 9 -14 10 -9 2 11 -20 -3 -36 -19 -23 -11 9 -13 8 -10 -7 2 -12 -2 -20 -10
-20 -8 0 -11 7 -7 15 4 11 -1 9 -14 -4 -14 -13 -17 -22 -10 -27 7 -5 2 -7 -11
-4 -15 3 -23 0 -23 -8 0 -8 -5 -17 -12 -21 -7 -5 -9 -2 -4 7 4 8 2 7 -6 -2 -7
-9 -21 -15 -30 -13 -11 1 -15 -3 -11 -14 5 -12 2 -14 -12 -9 -14 6 -15 5 -7
-6 9 -10 5 -13 -17 -11 -24 2 -28 -1 -24 -20 4 -17 3 -18 -6 -6 -10 13 -15 8
-12 -12 0 -5 -6 -8 -15 -8 -9 0 -12 5 -8 13 5 9 4 9 -5 1 -7 -6 -13 -20 -14
-32 0 -11 -5 -18 -9 -16 -5 3 -5 11 -2 17 4 7 -2 3 -13 -8 -11 -11 -18 -24
-15 -30 3 -5 -1 -4 -10 2 -12 11 -21 7 -50 -21 -19 -18 -44 -37 -56 -40 -14
-5 -19 -12 -15 -19 4 -8 1 -7 -9 1 -13 10 -18 10 -24 1 -4 -8 -3 -9 4 -5 7 4
12 2 12 -3 0 -6 -7 -11 -15 -11 -8 0 -15 -4 -15 -10 0 -5 -5 -10 -11 -10 -5 0
-7 5 -3 12 4 7 3 8 -4 4 -7 -4 -12 -13 -12 -21 0 -8 -5 -17 -12 -21 -7 -4 -8
-3 -4 4 4 7 2 12 -3 12 -6 0 -11 -4 -11 -9 0 -5 -12 -16 -26 -26 -18 -12 -24
-13 -19 -4 3 8 0 6 -8 -3 -8 -10 -18 -14 -22 -10 -5 4 -5 1 -1 -5 4 -7 2 -13
-4 -13 -6 0 -8 -5 -4 -12 6 -10 5 -10 -7 -1 -11 9 -19 8 -34 -4 -17 -13 -17
-15 -2 -9 11 3 16 2 12 -4 -3 -6 -15 -10 -26 -10 -18 0 -24 -11 -19 -35 1 -5
-2 -7 -6 -3 -4 4 -13 3 -20 -3 -8 -7 -14 -6 -20 2 -4 7 -3 9 3 6 6 -4 17 1 24
10 12 15 12 16 -1 8 -8 -6 -19 -10 -25 -10 -5 0 -9 -9 -7 -19 3 -14 -1 -17
-13 -12 -9 3 -13 2 -10 -4 3 -6 -3 -10 -15 -10 -12 0 -19 -4 -15 -9 7 -12 -24
-29 -47 -26 -11 2 -15 -2 -11 -13 5 -11 3 -13 -7 -7 -10 6 -12 4 -7 -7 4 -12
1 -14 -14 -11 -15 4 -22 0 -26 -17 -6 -21 -7 -22 -19 -6 -8 11 -14 13 -19 7
-3 -6 -1 -11 5 -11 6 0 9 -4 5 -9 -3 -6 -14 -8 -25 -6 -13 3 -17 -1 -13 -11 3
-7 10 -11 16 -7 6 3 7 1 3 -5 -5 -9 -13 -9 -28 -1 -16 9 -19 8 -13 -2 6 -9 3
-10 -10 -5 -15 5 -16 4 -5 -9 11 -13 10 -14 -5 -9 -14 6 -16 4 -10 -7 8 -12 6
-12 -9 0 -9 8 -16 10 -15 5 4 -21 -2 -28 -12 -14 -9 12 -10 10 -6 -8 5 -20 3
-22 -11 -10 -12 10 -14 10 -8 1 4 -8 1 -13 -9 -13 -10 0 -13 -5 -9 -12 5 -8 2
-9 -9 -5 -19 7 -23 -9 -4 -17 6 -2 1 -3 -13 -2 -14 2 -31 -4 -38 -13 -8 -9
-10 -10 -6 -2 5 10 3 12 -5 7 -7 -5 -10 -14 -7 -22 3 -8 0 -11 -9 -8 -8 3 -20
2 -27 -2 -7 -5 -16 -9 -20 -9 -3 0 -10 -4 -15 -9 -5 -5 -3 -6 5 -2 6 4 12 2
12 -5 0 -7 -8 -9 -21 -6 -17 4 -18 3 -8 -9 10 -12 9 -13 -4 -9 -8 4 -18 1 -22
-5 -6 -9 -10 -9 -17 1 -7 11 -8 9 -6 -6 1 -11 -2 -21 -7 -23 -6 -2 -19 -11
-29 -20 -18 -16 -18 -16 -6 8 12 22 11 24 -2 13 -8 -7 -17 -10 -21 -7 -3 3 -3
-3 0 -15 4 -17 1 -20 -23 -16 -16 2 -23 2 -16 -1 15 -7 16 -24 1 -24 -7 0 -18
-8 -25 -17 -12 -15 -13 -16 -8 -2 3 10 1 20 -4 23 -6 3 -9 -6 -8 -23 2 -23 -2
-28 -16 -26 -10 2 -24 7 -31 11 -8 5 -7 2 2 -9 12 -16 12 -17 -5 -11 -10 4
-16 4 -12 0 13 -15 -16 -35 -36 -24 -13 7 -16 7 -12 -1 4 -6 0 -14 -8 -17 -9
-3 -13 -10 -10 -15 3 -5 -2 -9 -11 -9 -9 0 -13 5 -10 10 3 6 1 10 -5 10 -6 0
-8 -11 -6 -25 3 -14 1 -23 -4 -20 -5 3 -11 1 -15 -5 -3 -5 -13 -10 -21 -10 -9
0 -12 5 -8 12 4 7 3 8 -4 4 -9 -5 -9 -13 -1 -28 9 -16 8 -19 -2 -12 -17 10
-50 13 -44 4 3 -4 -7 -20 -22 -36 -16 -17 -24 -22 -20 -11 8 22 -6 22 -24 0
-9 -11 -10 -14 -2 -9 9 5 11 2 7 -8 -3 -9 -11 -13 -18 -9 -15 10 -36 13 -35 5
1 -4 1 -15 0 -25 -1 -14 -5 -16 -20 -7 -17 9 -19 7 -16 -10 2 -12 0 -18 -6
-14 -12 7 -41 -15 -33 -27 3 -5 -3 -6 -12 -2 -11 4 -15 2 -11 -4 4 -6 1 -11
-6 -10 -31 1 -48 -4 -43 -12 3 -5 -2 -15 -11 -22 -9 -8 -14 -9 -10 -3 4 7 0
14 -8 18 -8 3 -17 0 -21 -6 -4 -7 -3 -8 4 -4 7 4 12 0 12 -10 0 -10 -3 -14 -7
-11 -3 4 -12 -1 -20 -11 -8 -9 -12 -11 -8 -4 3 6 1 12 -4 12 -6 0 -11 -7 -11
-15 0 -8 -3 -14 -7 -14 -20 3 -24 -2 -14 -15 10 -12 8 -13 -8 -9 -12 3 -18 10
-14 16 4 6 1 7 -6 3 -7 -5 -10 -10 -7 -13 6 -7 -39 -44 -51 -42 -4 1 -15 1
-23 0 -13 -1 -13 -2 0 -11 13 -8 12 -10 -3 -10 -10 0 -16 -4 -13 -9 3 -4 -6
-7 -19 -5 -14 1 -28 -3 -32 -8 -4 -7 -1 -8 7 -3 9 6 11 4 6 -4 -5 -7 -15 -10
-23 -7 -8 3 -11 1 -8 -4 3 -6 -1 -10 -10 -10 -9 0 -13 -5 -10 -10 3 -6 -1 -10
-10 -10 -10 0 -13 -5 -9 -12 5 -8 0 -7 -11 2 -17 14 -18 13 -12 -4 6 -16 5
-17 -8 -6 -13 11 -14 10 -9 -4 5 -12 2 -15 -12 -9 -13 5 -16 3 -11 -10 4 -12
2 -14 -10 -10 -12 5 -14 3 -8 -8 8 -12 6 -12 -8 0 -16 12 -22 8 -18 -13 1 -5
-7 -6 -18 -3 -15 4 -19 0 -16 -15 4 -17 2 -18 -12 -6 -15 11 -16 11 -10 -4 4
-11 2 -17 -6 -15 -7 1 -11 -4 -9 -11 1 -8 -2 -11 -7 -7 -6 3 -8 13 -5 23 5 15
5 15 -6 -1 -6 -9 -8 -23 -4 -30 5 -8 2 -7 -9 2 -10 8 -17 9 -17 3 0 -6 -10
-20 -22 -31 -17 -17 -24 -18 -37 -8 -12 10 -13 9 -6 -2 6 -11 4 -13 -8 -8 -19
7 -61 -39 -50 -56 4 -6 1 -7 -6 -3 -7 5 -10 15 -7 23 3 8 -12 1 -33 -16 -22
-18 -43 -30 -48 -29 -4 2 -9 0 -10 -4 -7 -20 -38 -43 -45 -34 -7 10 -13 -15
-9 -37 1 -5 -3 -6 -9 -2 -6 3 -8 12 -4 18 3 7 -3 2 -14 -10 -20 -23 -39 -32
-27 -13 3 6 -1 7 -10 4 -13 -5 -13 -9 -3 -22 9 -11 9 -14 1 -9 -7 4 -17 0 -23
-10 -10 -16 -11 -16 -6 -1 3 10 1 20 -5 23 -5 4 -8 1 -7 -7 2 -7 -2 -12 -9
-11 -8 2 -10 -4 -6 -15 6 -15 5 -15 -10 -3 -16 12 -17 12 -11 -5 4 -10 4 -16
-1 -12 -4 4 -17 -4 -27 -18 -11 -14 -23 -23 -26 -19 -3 3 -16 -5 -29 -17 -13
-12 -23 -18 -23 -14 0 5 -8 2 -17 -5 -16 -13 -17 -12 -5 3 10 12 10 18 1 24
-7 4 -9 3 -5 -4 3 -6 1 -14 -5 -17 -5 -4 -8 -14 -4 -23 3 -9 3 -13 -1 -9 -4 4
-14 1 -22 -6 -13 -9 -14 -9 -8 1 4 7 1 12 -9 12 -10 0 -13 -5 -9 -12 5 -8 2
-9 -11 -4 -15 5 -16 4 -5 -9 15 -18 -1 -20 -19 -3 -10 11 -11 10 -6 -3 6 -17
-19 -20 -45 -5 -12 7 -13 6 -2 -5 6 -7 12 -20 12 -28 0 -11 -4 -10 -16 5 -8
10 -13 13 -9 7 3 -7 1 -13 -5 -13 -6 0 -8 -5 -4 -11 4 -8 -1 -9 -16 -4 -16 5
-20 4 -15 -5 4 -7 -1 -13 -14 -17 -12 -3 -21 -9 -21 -13 0 -5 -10 -10 -22 -12
-13 -2 -22 -9 -20 -16 1 -8 -2 -11 -8 -7 -5 3 -10 1 -10 -4 0 -6 -5 -10 -12
-8 -7 1 -12 -3 -13 -10 0 -6 -4 -15 -9 -20 -5 -5 -6 -2 -1 7 7 12 6 13 -6 2
-12 -11 -12 -14 0 -21 11 -7 11 -9 0 -14 -10 -4 -10 -6 -1 -6 6 -1 12 -6 12
-12 0 -5 -4 -8 -8 -5 -5 3 -9 -1 -9 -9 0 -8 4 -15 9 -15 4 0 8 -5 8 -11 0 -5
-4 -8 -9 -4 -5 3 -13 0 -17 -6 -4 -8 -3 -9 4 -5 7 4 12 3 12 -3 0 -6 8 -8 18
-5 14 5 14 4 2 -4 -8 -6 -18 -8 -22 -6 -4 3 -8 0 -8 -5 0 -6 5 -11 11 -11 8 0
8 -5 -1 -15 -12 -14 -7 -19 13 -16 5 1 6 -3 2 -9 -3 -6 -11 -8 -16 -5 -5 4 -9
1 -9 -4 0 -6 6 -11 13 -11 8 0 7 -4 -3 -10 -13 -9 -13 -10 0 -10 13 0 13 -1 0
-10 -13 -9 -13 -10 0 -10 13 0 13 -1 0 -10 -13 -9 -13 -10 0 -10 13 0 13 -1 0
-10 -10 -6 -11 -10 -2 -10 6 0 12 -5 12 -11 0 -5 -6 -7 -12 -3 -10 6 -10 4 0
-8 10 -13 10 -17 0 -22 -10 -5 -10 -7 0 -12 6 -3 12 -10 12 -15 0 -6 -6 -7
-13 -3 -9 6 -9 4 1 -8 10 -13 10 -17 0 -22 -10 -5 -10 -7 0 -12 6 -3 12 -10
12 -15 0 -6 -4 -8 -8 -5 -5 3 -9 -1 -9 -9 0 -8 5 -15 11 -15 6 0 4 -5 -4 -10
-13 -9 -13 -10 0 -10 13 0 13 -1 0 -10 -13 -9 -13 -10 0 -10 13 0 13 -1 0 -10
-13 -9 -13 -10 0 -10 13 0 13 -1 0 -10 -11 -7 -11 -10 -2 -10 7 0 10 -5 6 -11
-4 -7 2 -6 17 1 l24 13 -20 -22 c-11 -12 -15 -22 -10 -21 25 5 46 -1 39 -12
-5 -8 0 -9 15 -5 18 4 20 3 11 -8 -9 -10 -6 -15 10 -20 12 -4 19 -12 17 -19
-3 -7 6 -12 22 -13 23 -2 24 -1 6 7 -15 7 -16 9 -4 9 9 1 23 -7 30 -16 10 -11
10 -14 1 -9 -7 4 -12 2 -12 -5 0 -6 8 -9 19 -6 15 3 18 1 14 -11 -5 -11 -3
-13 7 -7 10 6 12 4 7 -9 -4 -9 -3 -15 2 -11 5 3 12 -1 14 -7 4 -9 6 -8 6 2 1
9 6 5 14 -10 8 -16 21 -25 34 -24 18 1 21 -2 13 -16 -8 -15 -6 -17 13 -13 18
4 19 3 7 -6 -13 -9 -11 -11 7 -11 11 0 45 -19 75 -42 58 -46 69 -58 62 -70 -3
-4 2 -8 11 -8 10 0 13 -5 9 -12 -6 -10 -4 -10 8 0 13 10 17 10 22 -3 3 -9 10
-14 14 -11 13 8 75 -60 68 -73 -4 -7 -1 -9 8 -5 9 3 17 -2 21 -15 4 -13 11
-18 22 -14 12 5 14 3 8 -7 -6 -10 -4 -12 9 -7 9 4 14 3 11 -2 -3 -5 -1 -12 5
-16 5 -3 10 -1 10 4 0 6 5 11 10 11 7 0 7 -7 0 -20 -6 -11 -7 -20 -3 -19 4 1
23 -4 41 -11 23 -9 30 -16 23 -24 -7 -8 -4 -12 10 -13 10 -1 19 2 19 8 0 5 5
9 11 9 8 0 7 -5 -2 -16 -10 -13 -10 -17 2 -25 12 -7 12 -9 0 -9 -8 0 -11 -3
-8 -6 4 -4 14 -1 23 7 16 13 17 12 12 -8 -4 -16 -2 -20 10 -16 10 4 13 2 8 -5
-8 -14 20 -6 43 12 12 9 13 8 6 -3 -6 -10 -4 -12 4 -7 7 5 10 14 7 21 -5 13
11 15 29 3 13 -8 37 5 35 18 -1 5 4 10 11 13 7 2 9 -2 5 -10 -4 -8 -1 -6 7 3
11 14 16 15 26 5 7 -7 12 -7 11 -2 -6 28 0 38 15 25 13 -11 14 -10 8 6 -6 17
-5 17 10 5 15 -12 17 -12 12 2 -4 8 -1 18 6 23 7 4 10 3 5 -4 -4 -6 1 -10 13
-9 12 1 17 6 13 17 -5 13 -3 13 11 1 16 -12 17 -12 10 5 -5 16 -4 17 8 7 11
-9 18 -8 31 1 10 7 15 16 11 19 -7 7 12 11 36 7 9 -1 12 4 8 14 -6 14 -3 15
16 5 20 -11 21 -11 8 5 -12 14 -12 16 3 10 13 -5 15 -2 9 12 -7 18 -6 18 12 0
18 -18 19 -18 37 4 10 12 15 27 11 33 -3 6 -1 7 6 3 6 -4 8 -13 4 -19 -4 -7 0
-7 10 1 9 8 21 11 26 7 7 -4 8 0 4 11 -4 12 -2 15 8 12 8 -3 20 2 27 11 8 9
11 11 8 5 -3 -6 1 -11 9 -11 10 0 11 5 4 19 -7 14 -7 18 3 16 7 -2 16 -7 20
-13 5 -6 8 -5 8 3 0 7 5 10 12 6 7 -4 8 -3 4 5 -4 6 0 19 10 28 16 16 16 16
10 -7 -7 -23 -5 -22 19 7 23 29 29 32 48 21 19 -10 20 -9 10 4 -10 12 -10 15
2 16 8 1 22 3 30 4 11 1 12 5 3 15 -8 11 -7 12 6 7 10 -4 16 -1 16 7 0 12 2
12 9 1 7 -11 9 -11 14 2 4 9 13 16 21 16 8 0 18 5 22 12 5 7 3 8 -6 3 -9 -6
-11 -4 -5 4 5 9 10 10 18 2 14 -14 30 -14 22 -1 -3 6 2 10 12 10 14 0 15 2 5
9 -11 7 -10 10 3 15 24 9 27 8 19 -6 -5 -7 -3 -8 5 -4 7 5 10 15 7 23 -5 11
-1 13 16 7 17 -5 20 -3 15 10 -8 21 -3 20 19 -2 17 -16 18 -16 11 2 -6 14 -4
17 9 12 15 -6 15 -4 3 11 -9 11 -10 14 -1 9 6 -4 12 -3 12 2 0 6 7 13 16 16
15 6 15 4 3 -11 -13 -17 -13 -17 7 0 11 9 25 14 29 10 5 -5 4 -1 -3 8 -9 13
-9 16 3 16 8 0 15 -5 15 -11 0 -6 5 -3 11 7 5 9 7 22 4 27 -3 6 1 7 10 4 8 -4
23 0 32 7 14 12 16 12 8 -1 -6 -12 -6 -13 6 -2 12 11 12 14 0 21 -9 6 -5 8 13
8 15 0 23 -4 19 -10 -3 -6 -1 -7 6 -3 6 4 8 12 5 18 -5 7 -1 9 9 5 10 -3 17
-2 17 3 0 6 -6 10 -12 10 -9 0 -8 4 2 10 21 14 32 12 25 -3 -4 -6 1 -3 10 8 9
11 21 19 27 17 6 -2 8 4 4 14 -5 14 -4 15 9 4 15 -12 16 -11 19 10 2 19 30 30
45 17 12 -9 13 -9 7 1 -4 7 -2 12 4 12 6 0 8 5 4 12 -4 7 -3 8 4 4 7 -4 12 -2
12 5 0 8 4 8 15 -1 13 -11 14 -10 9 4 -5 12 0 19 15 23 12 3 18 10 14 17 -4 6
1 5 10 -3 15 -12 17 -11 17 9 0 16 4 20 15 16 8 -3 15 -1 15 4 0 6 5 10 11 10
5 0 7 -5 3 -12 -4 -7 -3 -8 4 -4 7 4 12 14 12 22 0 9 -5 12 -12 8 -7 -5 -8 -3
-3 5 5 9 11 9 17 3 7 -7 18 -6 35 5 18 12 21 18 12 30 -10 11 -8 12 15 3 33
-12 46 -13 28 -1 -10 6 -9 11 4 22 16 12 17 12 10 -1 -4 -9 -2 -8 7 2 8 10 18
14 22 10 5 -4 5 1 2 11 -5 12 -3 16 5 11 6 -4 17 2 25 12 8 10 16 18 18 17 13
-8 23 -1 28 19 5 18 8 19 22 8 9 -7 15 -9 14 -4 -4 25 3 35 24 32 16 -2 21 1
19 14 -2 12 2 16 13 12 10 -4 15 0 15 12 0 14 3 16 9 6 6 -10 10 -10 21 2 7 9
17 13 24 9 6 -4 5 1 -3 10 -12 15 -12 17 2 11 10 -3 20 2 26 15 7 12 19 18 31
16 20 -4 24 14 6 27 -5 3 6 5 25 5 28 -2 33 1 31 17 -2 11 1 15 7 11 6 -3 11
-1 11 4 0 6 5 11 11 11 5 0 7 -5 3 -12 -4 -7 -3 -8 5 -4 6 4 9 11 6 16 -3 4 2
11 11 14 8 3 12 11 8 17 -4 8 -3 9 5 5 6 -4 9 -11 7 -15 -3 -4 1 -8 8 -8 8 0
12 7 8 15 -3 10 -1 13 6 8 7 -4 12 -3 12 3 0 5 -3 11 -7 14 -5 2 -2 2 5 1 7
-2 15 3 18 11 4 8 12 15 20 15 8 0 14 5 14 11 0 8 6 7 17 -2 15 -13 15 -12 5
8 -9 16 -9 24 0 29 7 4 8 3 4 -4 -11 -18 20 -14 38 4 9 8 13 21 9 27 -4 7 2 5
12 -3 10 -8 16 -10 14 -5 -5 9 24 45 36 45 3 0 9 0 14 0 6 0 18 13 27 29 10
17 22 27 26 24 5 -2 1 -11 -9 -20 -17 -13 -16 -13 5 -3 13 6 20 16 16 22 -5 7
-2 9 9 5 11 -4 14 -2 10 9 -3 7 0 14 7 14 6 0 19 8 28 18 10 9 14 13 10 8 -18
-23 -6 -23 20 1 15 14 26 29 25 34 -2 4 5 5 14 2 11 -4 14 -3 9 5 -4 7 -2 12
4 12 6 0 8 5 4 12 -5 8 0 7 11 -2 15 -12 17 -12 10 -1 -6 11 -4 13 8 8 12 -4
15 -1 12 14 -4 18 -2 19 12 7 12 -9 15 -9 9 0 -4 7 -2 12 4 12 6 0 8 5 4 12
-4 6 -3 8 4 5 13 -9 42 2 42 15 0 6 -7 7 -16 4 -9 -3 -12 -2 -9 4 4 6 12 10
18 9 25 -3 38 1 32 10 -3 6 3 8 14 6 16 -3 19 1 15 23 -5 26 -5 26 10 7 16
-20 16 -20 22 3 5 19 9 20 22 10 9 -7 13 -8 10 -2 -4 5 4 18 17 28 14 10 22
24 18 30 -4 6 2 4 12 -4 11 -9 16 -10 11 -2 -4 6 -2 12 3 12 6 0 10 6 9 13 -2
7 5 11 16 9 13 -2 16 1 10 10 -6 10 -5 10 9 0 14 -12 16 -11 12 8 -3 16 0 20
10 16 9 -3 15 1 15 10 0 11 5 14 16 10 11 -4 15 -2 11 7 -4 10 2 13 19 11 13
-1 22 2 18 7 -3 5 -11 6 -17 2 -8 -4 -7 -1 1 9 7 9 22 15 33 13 12 -2 19 2 19
11 0 9 -5 12 -12 8 -7 -4 -8 -3 -4 5 6 9 12 9 24 -1 10 -7 14 -9 10 -4 -8 10
9 29 35 39 9 3 17 12 17 18 0 9 3 9 14 0 11 -9 13 -7 11 12 -2 15 2 24 11 24
8 0 11 -5 6 -12 -4 -6 0 -3 9 7 9 9 20 14 25 10 5 -4 2 1 -5 10 -11 15 -10 17
9 13 16 -3 20 0 16 10 -3 9 1 12 15 10 15 -3 19 0 15 10 -3 9 1 12 14 10 12
-2 17 1 14 10 -3 7 0 16 7 21 8 5 10 3 4 -7 -4 -8 1 -5 12 6 11 11 18 25 15
30 -3 6 1 4 10 -3 12 -10 17 -10 27 1 6 8 8 17 4 20 -3 4 -1 7 6 7 7 0 10 4 7
9 -3 4 6 7 20 5 21 -2 23 0 13 13 -11 12 -10 14 2 13 26 -4 49 0 47 8 -3 7 64
79 70 74 1 -1 2 1 1 4 -1 12 24 22 43 19 15 -3 16 -1 7 17 -7 12 -7 18 -1 14
6 -3 13 0 15 6 4 10 6 10 6 1 1 -7 6 -13 12 -13 5 0 7 4 4 10 -3 5 1 20 9 32
9 12 16 18 16 12 0 -5 -6 -16 -12 -23 -11 -11 -10 -12 2 -6 29 17 59 48 54 56
-3 5 3 6 13 2 16 -6 17 -5 3 12 -8 10 -10 16 -3 12 17 -11 40 2 47 25 4 17 8
19 19 10 17 -14 28 -6 20 14 -3 9 0 14 8 12 8 -2 13 3 11 12 -2 8 0 11 4 7 4
-4 14 3 21 15 l14 23 -6 -25 c-5 -25 -5 -25 6 -3 13 24 29 31 29 11 0 -6 3 -8
6 -5 4 4 1 14 -7 24 -9 11 -10 14 -1 9 6 -4 12 -2 12 3 0 6 5 11 11 11 5 0 7
-5 3 -12 -5 -7 -3 -8 5 -4 7 5 10 13 8 20 -3 6 7 20 20 30 l25 19 -17 -29
c-15 -25 -15 -27 0 -9 9 11 23 19 32 17 14 -3 14 -2 -1 13 -21 22 -20 28 3 16
14 -8 23 -5 41 14 13 13 28 21 34 18 6 -4 2 4 -8 16 -17 18 -17 21 -3 15 10
-3 17 -1 17 5 0 6 7 8 17 4 12 -5 14 -3 8 7 -6 10 -3 12 13 8 15 -4 19 -2 15
8 -3 8 -10 11 -16 7 -6 -3 -7 -1 -3 6 4 6 12 9 17 6 5 -4 9 -1 9 5 0 6 5 8 10
5 6 -4 7 -11 4 -17 -4 -6 -2 -8 4 -4 6 3 9 16 7 27 -4 18 -2 19 12 7 14 -12
16 -10 11 17 -6 27 -5 28 8 10 10 -13 14 -15 14 -4 0 8 10 25 21 39 l21 25
-17 -29 -17 -29 25 19 c14 11 22 25 19 33 -3 9 -1 12 6 7 7 -4 12 -2 12 4 0 6
5 8 11 5 6 -4 9 0 7 11 -2 10 2 19 7 19 16 1 36 16 31 24 -3 4 1 8 9 8 12 0
12 -4 -2 -19 -12 -13 -13 -22 -6 -29 8 -8 11 -6 10 7 -1 11 3 18 8 17 6 -1 12
7 12 18 1 10 -3 19 -9 19 -6 0 -9 3 -6 6 4 3 17 0 30 -7 21 -11 22 -11 9 5
-12 14 -12 16 4 10 14 -6 16 -3 10 17 -3 13 -3 20 2 14 10 -12 33 -18 32 -8
-3 19 2 33 11 33 5 0 8 -6 7 -12 -2 -7 1 -4 6 8 5 11 19 25 31 30 11 5 20 16
18 23 -2 9 3 11 14 7 13 -5 14 -3 6 7 -8 10 -7 13 7 13 12 0 17 -6 15 -16 -3
-8 1 -5 7 7 7 13 21 23 33 23 12 0 17 4 11 8 -5 4 -11 13 -13 21 -3 12 -1 12
14 0 16 -13 17 -12 11 5 -6 16 -5 17 8 6 8 -7 16 -10 16 -6 1 3 3 11 4 16 1 6
3 14 4 19 0 5 10 11 22 14 12 3 18 10 15 15 -8 13 22 24 37 15 8 -5 8 -2 0 8
-10 13 -10 16 5 16 9 0 24 -5 32 -11 9 -6 8 -3 -3 10 -17 21 -17 21 8 19 14
-2 23 1 19 6 -3 5 -10 6 -16 3 -7 -5 -8 -2 -4 5 5 7 14 10 22 7 7 -3 22 6 33
20 11 14 24 23 30 20 5 -3 8 5 6 19 -2 22 0 23 13 13 9 -7 13 -8 10 -3 -4 6
-3 17 3 25 6 11 9 11 9 2 0 -8 8 -5 22 8 12 11 26 20 32 20 5 0 6 3 3 6 -4 4
-15 1 -24 -7 -16 -13 -17 -12 -4 4 7 9 20 17 28 17 9 0 13 6 10 15 -5 11 -1
12 19 5 23 -9 24 -8 13 13 -11 20 -11 21 4 9 14 -12 16 -11 12 7 -3 18 -1 20
15 11 13 -7 21 -7 26 2 5 7 2 9 -7 4 -8 -4 -6 -1 3 7 10 8 14 18 10 22 -4 5 1
6 10 2 18 -6 32 18 21 36 -5 9 -3 9 8 1 11 -9 17 -9 26 1 10 11 10 15 0 18 -7
3 -4 6 6 6 9 1 17 6 17 12 0 5 5 7 12 3 8 -5 9 -2 5 10 -5 14 -3 15 13 6 21
-11 38 4 19 16 -8 5 -9 3 -4 -6 5 -9 4 -11 -4 -6 -6 4 -9 12 -5 17 3 6 8 8 12
5 3 -3 11 2 18 12 12 15 15 15 24 2 9 -12 10 -12 8 5 -4 32 10 49 30 33 12
-10 14 -10 8 0 -4 7 -2 12 4 12 7 0 9 7 6 16 -5 14 -4 15 9 4 14 -12 20 -5 17
22 -1 3 5 9 14 12 8 3 12 1 9 -4 -3 -5 0 -7 8 -4 8 3 14 13 13 22 -1 11 5 16
18 14 11 -2 15 1 11 7 -3 6 -1 11 5 11 6 0 8 5 4 12 -5 7 0 9 14 6 16 -5 20
-2 17 13 -2 10 1 22 7 25 7 4 8 2 4 -4 -4 -7 -2 -12 3 -12 6 0 11 5 11 11 0 5
5 7 12 3 8 -5 9 -2 5 10 -5 13 -3 17 7 13 11 -4 13 -1 9 10 -5 13 -3 14 16 3
21 -11 22 -10 11 10 -6 12 -9 24 -6 28 3 3 6 1 6 -5 0 -5 7 -10 15 -10 8 0 15
4 15 9 0 5 6 6 13 2 8 -5 7 -2 -2 9 -12 15 -12 17 1 12 9 -4 18 1 22 10 3 9
10 14 15 10 5 -3 13 0 17 6 4 8 3 9 -4 5 -7 -4 -12 -2 -12 3 0 6 5 12 10 12 6
1 15 2 21 3 7 0 15 9 18 19 4 10 10 18 14 18 19 -2 21 0 9 8 -10 6 -7 10 12
15 15 4 31 17 36 31 7 18 14 23 26 18 13 -5 15 -3 9 7 -6 10 -3 12 14 7 22 -5
22 -5 5 21 -16 24 -16 26 -1 13 11 -8 17 -9 17 -3 0 7 7 9 17 5 10 -4 14 -2 9
5 -8 13 27 35 39 24 5 -4 5 1 1 12 -4 13 -2 17 8 13 8 -3 16 2 19 14 3 10 10
19 17 19 6 0 8 -5 4 -12 -4 -6 -3 -8 4 -4 6 3 9 15 7 26 -3 13 1 17 11 13 10
-4 17 2 21 16 4 16 11 20 27 16 16 -5 18 -4 6 4 -13 9 -13 12 -1 23 12 11 13
10 6 -2 -5 -8 3 -4 17 10 13 14 23 28 21 32 -2 4 4 5 13 1 12 -4 15 -3 10 5
-10 16 6 15 24 0 8 -7 6 -2 -5 11 -11 14 -15 21 -8 18 17 -10 40 2 46 24 4 13
12 19 24 17 13 -2 18 3 17 20 -1 12 3 22 7 22 5 0 9 -4 9 -10 0 -5 5 -10 11
-10 6 0 9 7 5 15 -3 8 -1 15 5 15 6 0 7 6 3 13 -6 8 -3 8 9 -1 14 -12 16 -11
12 7 -3 15 0 18 12 14 12 -5 14 -3 8 6 -5 10 -1 12 16 7 13 -3 19 -3 12 0 -7
3 -9 12 -6 20 3 7 9 11 15 8 5 -3 12 3 15 14 3 14 10 19 21 15 11 -5 13 -3 7
7 -6 10 -4 12 7 7 10 -3 15 0 14 11 0 9 6 18 14 18 8 1 19 2 24 3 5 0 3 8 -4
16 -11 13 -10 14 4 9 10 -4 16 -1 16 9 0 9 5 19 12 23 7 5 8 3 3 -7 -7 -12 -6
-12 7 -1 13 10 17 10 22 0 3 -7 3 -2 0 11 -4 16 -3 21 5 17 6 -4 11 -2 11 3 0
6 5 10 12 9 6 -2 17 7 23 20 7 12 16 26 20 30 5 4 4 0 0 -8 -7 -12 -6 -13 7
-3 8 7 18 9 23 5 4 -4 2 3 -4 15 -10 19 -9 22 4 17 8 -4 15 -1 15 5 0 6 10 11
22 11 21 0 21 0 2 15 -19 15 -19 15 0 8 16 -5 18 -3 13 11 -4 10 -3 15 3 11
14 -9 50 13 50 31 0 9 5 12 12 8 8 -5 9 -2 5 10 -4 10 -3 15 3 11 6 -3 10 -1
10 4 0 6 7 11 16 11 11 0 14 5 10 17 -4 10 -4 14 0 11 4 -4 16 4 26 18 17 21
23 23 36 12 9 -7 13 -8 10 -3 -5 10 41 62 52 59 3 -1 4 2 2 8 -1 5 7 12 18 15
16 4 18 8 9 19 -10 12 -9 13 5 8 9 -3 16 -11 16 -17 0 -6 3 -7 6 -4 4 4 1 14
-7 24 -8 9 -9 14 -3 10 7 -4 14 -1 17 7 3 7 14 16 25 18 16 4 19 2 15 -11 -4
-14 -3 -14 9 1 13 15 15 15 28 -5 12 -21 12 -21 -6 -7 -18 14 -18 14 -5 -2 7
-10 25 -18 38 -18 21 0 24 -4 20 -21 -4 -16 -3 -18 9 -8 11 9 14 8 14 -2 0
-11 3 -11 11 1 9 12 10 11 6 -5 -3 -14 1 -21 12 -21 9 -1 25 -5 35 -9 15 -7
17 -5 11 6 -7 11 -6 12 7 2 8 -7 19 -9 23 -5 5 4 4 1 0 -7 -6 -11 -4 -13 9 -8
10 4 19 1 22 -6 6 -16 84 -19 84 -3 0 6 5 4 10 -4 5 -8 10 -19 10 -25 0 -5 -5
-3 -10 5 -5 8 -10 10 -10 4 0 -6 8 -18 17 -25 9 -8 14 -9 10 -2 -11 18 26 21
40 3 10 -12 12 -12 13 -1 0 10 3 11 14 2 10 -8 16 -9 21 -1 3 5 11 10 16 10 6
0 8 -4 5 -9 -7 -10 13 -9 31 2 6 4 14 1 16 -5 4 -10 6 -9 6 1 1 10 4 11 15 2
11 -9 16 -9 21 0 6 8 10 7 16 -2 7 -12 9 -12 9 0 0 10 3 11 14 2 10 -9 16 -9
21 -1 5 8 10 8 20 0 10 -8 15 -8 21 1 5 8 3 9 -6 4 -9 -6 -11 -4 -5 5 6 10 10
10 19 -2 10 -13 13 -13 25 -1 11 12 16 12 37 -2 23 -15 23 -15 14 12 l-10 28
20 -25 c17 -22 19 -23 16 -5 -3 16 2 21 25 21 16 1 26 -2 23 -7 -3 -5 2 -6 10
-3 9 3 13 11 9 17 -4 6 -1 7 8 1 20 -12 38 -14 45 -3 3 5 0 9 -6 9 -6 0 -8 5
-4 11 4 8 12 3 21 -12 8 -13 12 -16 9 -7 -3 9 2 22 10 29 12 10 13 9 7 -7 -6
-17 -5 -17 10 -5 10 8 20 11 24 8 3 -4 12 1 20 11 8 9 12 12 9 5 -4 -6 -1 -15
5 -19 7 -4 9 -3 6 3 -4 6 1 19 9 29 9 10 13 14 10 8 -4 -8 3 -11 18 -10 17 1
21 5 15 12 -6 8 -1 10 18 6 22 -4 25 -2 19 14 -4 10 -4 15 0 11 4 -4 14 -1 22
6 13 10 15 9 9 -8 -5 -15 -1 -13 16 8 12 15 27 27 32 27 5 0 4 -5 -3 -12 -7
-7 -12 -15 -12 -20 0 -4 11 4 25 18 15 15 30 22 38 18 9 -6 8 -3 -1 8 -11 14
-10 16 9 11 16 -5 20 -3 15 6 -5 8 -3 12 5 10 29 -3 40 1 33 14 -6 9 -5 9 8 0
15 -13 28 -8 28 11 0 6 -5 4 -11 -4 -9 -13 -10 -13 -6 0 2 8 12 14 22 12 11
-2 15 1 10 10 -3 7 1 4 11 -7 14 -17 16 -17 11 -2 -4 9 -2 17 4 17 6 0 7 6 3
13 -4 6 -4 9 1 5 11 -10 47 11 40 22 -4 6 1 7 11 3 10 -4 15 -2 11 4 -3 5 0
10 7 10 8 0 12 -7 9 -16 -3 -12 -2 -12 7 2 6 9 8 22 4 29 -4 6 -3 8 4 4 5 -3
12 -3 15 1 2 5 2 1 0 -7 -2 -10 2 -8 12 4 11 14 15 16 15 5 0 -12 2 -12 9 1 6
8 7 18 5 22 -3 4 7 8 21 8 17 0 24 4 19 12 -5 8 -2 9 9 5 9 -3 16 -3 16 1 -4
26 2 34 16 22 12 -10 14 -8 10 9 -2 11 1 24 7 27 7 4 8 2 4 -4 -4 -7 -1 -12 8
-12 9 0 17 5 17 10 1 6 2 14 3 19 0 5 5 13 10 18 5 4 6 3 3 -3 -4 -7 -1 -14 7
-17 10 -4 12 1 9 16 -4 18 -3 19 6 7 10 -14 16 -7 12 14 -1 5 5 6 13 3 8 -3
17 1 20 9 3 9 10 12 16 9 5 -3 7 0 4 8 -3 8 -1 18 5 22 6 3 11 1 11 -5 0 -6 5
-8 10 -5 6 4 8 11 5 16 -4 5 -1 9 5 9 6 0 8 5 4 13 -5 8 -2 7 9 -2 15 -12 17
-12 11 4 -5 13 -4 16 4 11 7 -4 12 -1 12 8 0 8 5 18 12 22 6 4 8 3 5 -2 -3 -6
4 -11 16 -11 12 -1 17 1 12 5 -6 4 -12 16 -13 26 -3 18 -2 18 14 5 16 -12 17
-12 11 3 -4 12 -2 15 9 11 10 -4 17 2 21 17 4 16 8 18 14 8 7 -10 9 -9 9 3 0
9 8 23 18 30 15 13 16 12 3 -3 -8 -12 -9 -18 -2 -18 6 0 13 11 17 25 3 14 10
23 14 20 5 -3 15 1 23 9 8 8 17 13 19 11 3 -3 5 1 5 9 0 9 -7 12 -16 8 -21 -7
-12 2 16 17 20 10 22 9 17 -6 -5 -15 -4 -16 5 -3 6 8 11 23 11 33 0 9 5 17 11
17 5 0 7 -5 3 -12 -4 -7 -3 -8 4 -4 7 4 12 14 12 21 0 9 6 12 17 8 10 -4 14
-2 10 4 -4 5 1 19 9 29 9 10 12 12 8 4 -7 -13 -6 -13 10 -1 10 8 15 23 12 33
-4 17 -2 17 12 6 14 -11 15 -10 9 6 -7 17 -6 17 10 5 9 -8 14 -9 10 -3 -3 6 0
20 8 30 10 14 14 15 15 5 0 -8 3 -12 6 -9 3 4 0 17 -7 30 -6 12 -8 20 -4 16
10 -9 37 11 30 22 -3 5 5 6 17 3 19 -4 20 -3 8 6 -13 10 -13 11 0 12 8 1 22 0
30 -1 10 -1 9 3 -5 14 -18 13 -18 15 -3 16 19 0 41 33 30 44 -3 4 2 4 13 0 18
-7 18 -6 7 9 -12 14 -11 16 7 12 23 -4 29 10 9 18 -10 4 -10 6 0 6 8 1 10 6 6
14 -6 10 -4 10 7 0 7 -7 18 -13 24 -13 5 0 3 5 -5 10 -13 8 -13 11 -1 19 8 5
10 14 6 21 -6 9 -4 11 4 6 8 -5 14 0 18 14 3 12 11 19 19 16 8 -3 11 0 7 9 -3
8 -10 12 -16 8 -6 -4 -7 -1 -3 6 5 7 14 10 22 7 8 -3 14 -1 14 4 0 6 -5 10
-11 10 -5 0 -7 5 -4 10 5 7 11 8 19 1 9 -7 12 -3 11 17 0 22 4 26 20 24 l20
-4 -20 16 c-17 13 -17 15 -3 16 12 0 15 6 10 23 -5 20 -4 21 11 8 15 -12 17
-12 11 4 -6 14 -4 16 6 10 10 -6 11 -4 4 6 -4 8 -9 20 -10 27 -2 11 1 11 14 0
9 -7 14 -8 10 -4 -4 5 -2 16 5 24 10 13 9 15 -6 9 -11 -4 -16 -3 -12 3 3 6 13
10 22 10 13 0 13 3 3 15 -11 13 -10 14 3 10 8 -4 18 -1 23 6 4 7 3 10 -3 6 -6
-4 -14 0 -17 9 -3 8 -2 13 2 11 4 -3 12 1 19 8 10 11 10 15 0 18 -7 3 -4 6 7
6 15 1 16 4 6 16 -9 11 -9 15 -1 15 7 0 9 5 5 11 -4 8 1 9 17 5 13 -3 18 -3
11 0 -10 5 -10 9 0 22 10 12 10 14 1 8 -19 -11 -15 5 5 20 16 13 16 13 -2 14
-18 0 -18 1 -3 18 10 10 14 22 10 27 -5 4 1 5 12 1 11 -4 16 -4 12 0 -4 4 -1
14 6 23 11 14 10 15 -7 1 -18 -14 -19 -14 -8 5 5 11 9 35 8 52 -2 25 2 30 15
28 10 -2 20 3 23 11 3 8 2 13 -3 10 -4 -3 -8 8 -7 23 1 16 4 27 9 24 10 -6 9
5 -5 30 -10 20 -9 21 5 9 13 -11 15 -10 10 8 -3 11 -2 20 3 19 23 -4 26 2 8
17 -10 8 -14 13 -8 10 7 -3 17 1 24 9 11 13 10 14 -6 8 -17 -6 -17 -5 -5 10
11 14 11 17 0 17 -8 0 -6 6 7 16 10 8 13 13 7 9 -8 -4 -13 0 -13 10 0 9 5 13
11 9 8 -4 8 -1 2 12 -11 25 -10 54 2 51 6 -1 9 -6 7 -12 -2 -6 1 -5 8 1 13 13
2 47 -13 37 -6 -3 -7 -1 -3 6 4 6 11 9 16 6 4 -3 11 2 14 11 3 8 2 13 -3 10
-5 -3 -11 1 -15 9 -3 8 -2 14 2 14 18 -3 26 2 14 9 -9 7 -10 15 -3 35 8 20 7
27 -2 27 -8 0 -7 4 3 10 13 9 13 10 0 10 -13 0 -13 1 0 10 13 9 13 10 0 10
-13 0 -13 1 0 10 11 7 11 10 2 10 -7 0 -10 5 -7 10 4 6 11 8 16 5 5 -3 6 1 3
9 -3 9 -11 13 -18 9 -6 -4 -5 1 2 10 8 9 11 21 7 27 -6 9 8 15 28 11 5 -1 6 3
2 9 -3 6 -10 8 -15 5 -5 -3 -12 0 -16 6 -4 7 -3 9 4 5 6 -3 13 -2 17 4 3 5 2
10 -3 10 -6 0 -12 7 -16 15 -4 12 -2 13 13 6 13 -8 18 -6 18 5 0 7 -6 14 -14
14 -7 0 -13 5 -13 11 0 6 6 9 14 6 14 -6 16 9 3 30 -4 6 -3 13 3 15 6 2 4 14
-4 30 -13 25 -13 29 2 38 16 9 16 9 0 10 -10 0 -18 4 -18 10 0 5 8 6 17 3 17
-7 16 -5 -1 22 -14 21 -15 27 -4 23 8 -4 15 0 15 8 0 7 -5 10 -11 7 -6 -4 -5
1 3 10 11 14 11 17 0 17 -12 0 -12 2 0 9 11 7 11 9 0 14 -12 4 -11 7 1 16 13
10 13 11 0 11 -9 0 -11 3 -5 8 14 10 11 48 -6 69 -9 11 -10 14 -1 9 7 -4 12
-2 12 4 0 6 5 8 11 5 6 -4 5 2 -2 13 -7 12 -18 18 -24 14 -5 -3 -4 1 2 9 10
12 10 18 0 28 -6 6 -12 23 -12 36 -1 19 2 22 12 13 10 -8 12 -7 7 6 -3 9 -10
16 -15 16 -5 0 -9 5 -9 11 0 5 6 7 13 3 6 -4 5 1 -4 12 -13 16 -17 37 -10 47
7 8 9 47 3 43 -5 -3 -7 5 -6 17 1 12 3 22 4 22 1 0 3 12 4 28 1 15 -2 27 -7
27 -4 0 -3 9 3 19 14 27 13 36 -4 22 -11 -9 -16 -9 -22 0 -4 7 -3 9 3 6 6 -4
13 1 15 11 7 27 5 37 -9 34 -7 -2 -13 2 -13 8 0 5 7 10 15 10 8 0 15 4 15 10
0 5 -6 7 -12 5 -16 -6 -40 42 -27 51 5 3 8 0 7 -7 -2 -6 4 -14 12 -16 13 -4
13 -3 0 6 -8 6 -11 11 -6 11 5 0 4 6 -3 13 -8 10 -7 17 2 27 7 8 8 11 1 7 -13
-7 -27 30 -15 38 15 9 4 49 -15 56 -19 7 -19 8 0 8 20 1 20 1 0 17 -10 8 -13
13 -6 9 6 -3 12 -1 12 4 0 6 -4 11 -10 11 -5 0 -10 5 -10 11 0 5 5 7 11 3 6
-3 3 5 -6 20 -12 19 -14 26 -5 26 9 0 6 7 -6 21 l-19 22 25 -13 c22 -12 24
-11 13 2 -7 8 -9 19 -5 23 4 5 1 4 -7 0 -11 -6 -13 -4 -8 8 3 10 2 17 -3 17
-6 0 -9 3 -9 8 1 4 1 16 0 27 -1 16 -3 17 -11 5 -7 -12 -9 -10 -7 8 1 15 6 21
16 17 10 -4 9 1 -5 16 -10 12 -13 19 -6 15 17 -10 15 2 -3 20 -11 11 -12 20
-5 34 7 13 7 21 -2 26 -6 4 -8 3 -4 -4 3 -6 2 -13 -3 -16 -10 -7 -9 20 2 30 4
4 7 12 7 18 0 7 -3 7 -8 0 -5 -9 -11 -8 -20 2 -7 8 -9 14 -4 14 5 0 9 7 9 15
0 8 -5 15 -11 15 -6 0 -4 5 4 10 10 6 11 10 3 10 -7 0 -13 5 -13 11 0 5 4 8 8
5 5 -3 9 1 9 9 0 9 -7 14 -15 13 -8 -2 -16 5 -17 15 -2 9 1 15 6 11 5 -3 6
-10 3 -16 -4 -7 -2 -8 4 -4 9 5 9 12 0 26 -7 10 -15 17 -18 15 -3 -2 -6 5 -6
16 0 10 5 19 11 19 5 0 3 5 -5 10 -12 8 -12 10 -1 10 9 0 10 4 4 13 -6 6 -9
20 -8 30 2 10 -3 17 -12 17 -12 0 -13 -3 -4 -14 9 -11 9 -16 0 -22 -7 -4 -9
-3 -5 4 3 6 2 14 -4 17 -8 5 -7 11 1 21 9 11 8 14 -2 14 -11 0 -11 2 1 10 10
6 11 10 3 10 -7 0 -13 6 -13 14 0 8 6 17 13 19 6 3 2 6 -10 6 -12 1 -24 5 -27
10 -4 5 4 7 16 3 20 -5 21 -3 11 10 -7 8 -10 18 -6 22 4 4 0 4 -9 1 -9 -4 -19
-1 -24 6 -4 7 -3 10 3 6 6 -4 11 4 11 18 0 14 -4 25 -9 25 -5 0 -9 5 -9 11 0
5 4 8 8 5 5 -3 9 1 9 9 0 8 -4 12 -9 9 -4 -3 -8 2 -8 10 0 9 -5 16 -11 16 -7
0 -9 10 -7 25 3 13 1 22 -3 19 -5 -3 -9 2 -9 11 0 10 5 14 13 9 6 -3 -1 6 -18
21 -30 27 -30 27 -5 21 14 -3 19 -3 12 0 -6 3 -10 10 -7 14 3 5 -4 14 -15 20
-15 8 -18 15 -11 24 6 7 6 17 1 26 -5 8 -6 19 -2 25 3 5 -3 3 -13 -5 -17 -14
-18 -14 -5 9 11 21 10 23 -3 18 -16 -6 -17 9 -3 32 7 10 6 12 -4 6 -10 -6 -12
-4 -7 7 4 11 -1 18 -15 22 -16 4 -19 8 -10 18 6 8 7 19 2 27 -4 8 -6 21 -2 29
4 11 1 13 -9 7 -11 -6 -12 -5 -1 6 18 19 15 34 -4 18 -15 -12 -16 -11 -9 10 5
16 4 21 -4 17 -7 -5 -11 5 -11 29 0 26 -3 34 -12 29 -8 -5 -8 -2 1 10 12 15
12 17 0 14 -8 -2 -13 3 -12 10 2 6 -2 12 -8 12 -7 0 -9 10 -5 26 5 18 3 24 -5
19 -8 -5 -9 0 -5 16 7 24 7 24 -9 4 -16 -19 -16 -19 -9 9 5 22 4 27 -6 21 -9
-6 -10 -3 -1 13 8 15 8 23 -1 28 -7 5 -8 3 -3 -7 5 -8 -1 -5 -13 5 -25 21 -31
36 -7 16 12 -10 15 -10 15 4 0 9 -3 16 -8 16 -4 0 -13 9 -19 20 -11 17 -10 19
5 14 16 -5 16 -5 0 9 -21 16 -24 32 -5 21 8 -5 8 -2 -2 9 -14 18 -26 23 -16 8
3 -5 1 -12 -4 -15 -5 -4 -8 2 -6 11 1 10 -2 24 -8 31 -7 9 -5 11 8 6 13 -5 16
-4 11 4 -4 7 -15 12 -24 12 -12 0 -13 3 -4 12 9 9 7 17 -10 35 -21 22 -21 24
-3 18 15 -5 16 -4 6 3 -8 6 -10 15 -6 22 5 8 4 11 -2 7 -6 -4 -14 1 -18 11 -5
14 -10 11 -26 -18 -11 -19 -17 -26 -14 -15 4 11 8 25 9 30 1 6 5 15 9 22 4 6
3 15 -3 18 -6 4 -9 3 -8 -2 1 -4 -2 -17 -8 -28 -6 -11 -10 -27 -9 -35 1 -8 3
-21 3 -28 1 -7 7 -10 14 -6 7 4 8 3 4 -5 -6 -9 -11 -9 -22 0 -12 10 -13 9 -8
-5 3 -9 10 -16 15 -16 5 0 9 -5 9 -11 0 -5 -5 -7 -12 -3 -7 4 -8 3 -4 -5 4 -6
2 -18 -4 -26 -7 -8 -9 -15 -5 -15 4 0 14 8 21 18 13 16 14 16 7 -3 -3 -11 -11
-23 -17 -27 -7 -5 -6 -8 3 -8 10 0 11 -3 3 -13 -8 -9 -7 -20 3 -40 12 -24 12
-28 -3 -37 -14 -8 -14 -10 -2 -11 8 -1 19 0 25 1 5 1 6 -2 2 -7 -5 -4 -14 -8
-20 -8 -7 0 -12 -16 -12 -37 -1 -20 3 -34 7 -32 4 3 8 -2 8 -11 0 -9 -4 -14
-8 -11 -4 2 -9 -5 -9 -16 -2 -16 1 -18 10 -9 21 21 28 11 7 -11 -21 -23 -29
-51 -8 -30 7 7 17 12 22 12 7 0 8 -3 1 -8 -16 -11 -41 -47 -28 -39 6 4 15 3
18 -3 4 -6 1 -9 -6 -8 -6 2 -14 -3 -17 -11 -2 -8 0 -11 5 -8 5 3 10 0 10 -8 0
-8 -3 -13 -5 -10 -3 3 -11 -3 -19 -13 -12 -16 -13 -16 -6 2 4 12 3 17 -4 13
-5 -3 -10 0 -10 8 0 8 5 15 11 15 5 0 1 7 -10 16 -10 8 -12 12 -4 8 13 -7 13
-5 2 8 -10 13 -10 17 0 21 10 4 10 8 -1 15 -12 8 -12 14 -3 25 10 12 9 16 -3
21 -9 3 -13 2 -10 -4 3 -6 1 -10 -4 -10 -15 0 -14 13 2 29 7 9 7 11 1 8 -7 -4
-15 0 -18 9 -4 10 -2 13 7 8 9 -5 9 -4 0 7 -16 16 -17 33 -2 23 7 -4 1 7 -11
25 -23 30 -35 75 -18 65 4 -3 8 0 8 5 0 6 -4 11 -9 11 -5 0 -12 7 -15 16 -3 8
-2 13 2 10 5 -3 9 1 9 9 0 8 -4 12 -9 9 -4 -3 -13 7 -19 23 -16 38 -18 63 -5
56 6 -3 5 0 -1 8 -7 7 -13 17 -13 22 0 4 6 5 13 1 8 -5 8 -2 -2 9 -16 20 -26
23 -15 5 6 -10 5 -10 -8 0 -9 7 -13 22 -10 37 3 16 -2 34 -14 48 -12 13 -13
17 -3 10 13 -11 15 -9 14 9 -1 12 -8 24 -16 26 -11 3 -11 1 1 -7 13 -9 13 -11
-2 -11 -21 0 -23 11 -5 29 10 11 9 12 -2 6 -11 -6 -13 -2 -9 18 4 19 0 27 -14
30 -10 3 -17 9 -16 14 1 4 -3 18 -10 29 -6 12 -9 24 -5 27 3 4 0 15 -8 24 -13
16 -12 17 4 4 22 -18 22 -10 -2 18 -12 14 -17 30 -13 44 5 19 3 20 -10 9 -14
-11 -16 -10 -11 7 3 13 1 21 -6 21 -7 0 -9 5 -6 10 3 6 2 10 -2 10 -5 0 -8 13
-7 30 1 16 -2 27 -7 24 -5 -3 -9 0 -9 6 0 6 -4 9 -8 6 -5 -3 -9 1 -9 9 0 8 5
11 10 8 5 -3 7 0 5 8 -3 8 -10 13 -16 12 -7 -2 -9 4 -5 14 5 11 3 14 -6 8 -10
-5 -11 -2 -6 14 5 17 3 20 -12 14 -16 -6 -16 -5 -4 10 11 14 11 17 0 17 -12 0
-12 2 -1 9 10 6 9 10 -7 14 -15 4 -19 10 -14 23 4 11 3 15 -4 11 -6 -4 -13 2
-16 14 -5 18 -3 18 11 7 15 -11 15 -11 5 3 -7 9 -10 19 -6 23 4 4 0 4 -10 0
-11 -4 -17 -1 -18 10 -1 9 -3 21 -4 26 -1 6 -3 15 -4 21 0 5 -5 7 -11 4 -6 -4
-10 7 -10 24 0 17 -4 31 -10 31 -5 0 -10 7 -10 15 0 8 -5 15 -10 15 -6 0 -10
6 -9 13 3 26 -1 37 -15 37 -8 0 -18 5 -22 12 -5 7 -2 8 7 3 11 -6 12 -5 2 6
-16 16 -17 33 -1 23 7 -4 8 -3 4 4 -4 7 -13 12 -20 12 -8 0 -20 8 -27 17 -12
14 -12 16 0 9 9 -6 12 -5 9 5 -3 8 -10 13 -16 12 -6 -2 -9 4 -6 12 7 17 -20
48 -31 37 -5 -4 -5 -2 -1 5 4 7 14 10 24 7 15 -5 15 -4 -1 6 -10 6 -14 16 -10
23 4 7 -1 6 -10 -2 -15 -12 -17 -12 -11 4 5 13 4 16 -5 11 -8 -6 -11 -2 -9 10
2 12 -2 18 -10 16 -8 -1 -11 2 -8 7 3 5 -1 14 -9 21 -11 9 -12 17 -4 32 8 15
8 19 0 14 -6 -4 -11 -2 -11 5 0 9 -3 9 -14 0 -12 -10 -13 -8 -9 8 3 12 10 18
17 14 6 -4 5 1 -3 10 -16 20 -25 22 -16 5 4 -7 -1 -4 -9 7 -9 11 -14 25 -11
33 2 7 -2 15 -10 18 -8 4 -13 9 -10 14 2 4 -4 16 -13 26 -20 22 -36 55 -33 68
1 5 -6 3 -16 -4 -10 -8 -15 -10 -11 -6 4 5 2 16 -5 24 -10 13 -9 15 3 8 8 -4
7 -1 -4 8 -10 8 -15 19 -11 25 4 7 -1 8 -12 4 -16 -6 -16 -5 -4 11 8 9 10 16
5 15 -27 -5 -36 2 -32 26 3 14 1 28 -5 32 -6 3 -7 1 -3 -5 4 -7 1 -12 -9 -12
-11 0 -15 5 -11 15 3 8 1 15 -5 15 -6 0 -9 7 -5 15 3 9 0 15 -9 15 -8 0 -15 5
-15 11 0 5 -6 7 -12 3 -9 -5 -9 -2 1 9 11 14 11 17 0 18 -8 1 -18 1 -23 0 -5
-1 -3 6 5 15 9 12 9 15 2 10 -8 -4 -13 -2 -13 4 0 6 -5 8 -12 4 -9 -5 -9 -2 1
9 12 15 11 17 -10 18 -22 0 -23 1 -4 9 17 7 17 9 3 9 -10 1 -18 6 -18 12 0 5
-4 7 -10 4 -5 -3 -10 -2 -10 4 0 5 6 12 13 14 6 3 2 6 -10 6 -13 1 -23 6 -23
12 0 5 6 7 13 3 8 -5 7 -2 -2 10 -11 13 -16 14 -23 4 -6 -9 -8 -5 -6 12 3 31
-8 51 -25 44 -7 -2 -13 4 -14 16 -1 12 2 18 9 14 7 -4 8 -2 4 4 -5 9 -13 9
-26 2 -16 -9 -18 -8 -14 5 4 8 1 22 -6 30 -10 12 -10 15 0 15 8 0 11 3 7 6 -3
3 -11 3 -17 -1 -8 -5 -7 -11 2 -23 8 -11 5 -10 -10 3 -15 13 -19 21 -11 24 7
2 2 9 -12 18 -13 8 -16 12 -6 9 9 -3 17 -1 17 4 0 6 -9 10 -20 10 -11 0 -20 5
-20 11 0 5 5 7 12 3 7 -4 8 -3 4 5 -4 6 -10 9 -14 7 -4 -2 -16 2 -27 10 -10 8
-13 14 -7 14 10 0 10 3 0 14 -7 8 -16 12 -20 9 -4 -2 -5 3 -2 11 3 9 1 16 -6
16 -6 0 -8 5 -5 10 8 13 -8 13 -21 0 -6 -6 -9 0 -8 18 2 37 -4 44 -27 31 -19
-9 -19 -9 -10 10 9 16 7 23 -14 39 -17 14 -23 26 -19 38 6 17 5 17 -9 -1 -15
-20 -16 -20 -25 5 -5 14 -8 28 -5 33 2 4 1 7 -4 6 -21 -4 -33 2 -33 17 0 8 -4
12 -10 9 -5 -3 -10 0 -10 9 0 8 3 16 8 19 4 2 1 2 -5 1 -20 -5 -43 7 -43 21 0
7 -7 15 -15 19 -9 3 -12 12 -8 22 5 13 3 16 -10 11 -9 -3 -19 -1 -23 5 -4 7
-3 8 4 4 7 -4 12 0 12 10 0 10 -3 14 -7 11 -3 -4 -13 2 -20 13 -8 11 -19 17
-25 14 -6 -4 -8 -2 -4 4 3 6 2 13 -4 17 -6 4 -8 11 -5 16 3 5 0 6 -8 4 -7 -3
-22 5 -33 17 l-19 23 25 -20 25 -20 -19 22 c-16 19 -22 21 -34 10 -9 -6 -13
-7 -9 -1 3 6 0 22 -8 37 -7 14 -10 29 -7 33 4 4 -3 1 -16 -5 -12 -7 -21 -8
-20 -4 4 15 -14 53 -22 48 -5 -3 -14 3 -19 14 -6 11 -20 23 -31 26 -11 3 -20
11 -20 16 0 6 5 7 12 3 7 -4 8 -3 4 4 -4 6 -13 9 -20 6 -18 -7 -38 21 -39 54
0 15 -2 21 -4 14 -3 -6 -10 -9 -16 -5 -9 5 -9 3 -2 -8 6 -8 2 -6 -7 4 -10 11
-15 24 -11 31 4 6 -2 4 -12 -4 -10 -8 -17 -10 -14 -5 6 12 -37 56 -46 46 -4
-3 -6 -1 -5 4 6 29 0 36 -22 24 -19 -9 -21 -9 -10 2 14 15 16 33 3 25 -5 -3
-12 1 -15 10 -3 8 -14 14 -23 12 -13 -2 -17 3 -15 16 2 11 -1 15 -7 11 -6 -3
-11 -1 -11 5 0 6 -4 8 -10 5 -5 -3 -10 1 -10 10 0 8 -8 19 -17 22 -10 4 -21
11 -25 17 -14 21 -33 13 -34 -15z m100 -295 c3 -8 2 -12 -4 -9 -6 3 -10 10
-10 16 0 14 7 11 14 -7z m740 -512 c3 -5 -1 -9 -9 -9 -8 0 -12 4 -9 9 3 4 7 8
9 8 2 0 6 -4 9 -8z m271 -341 c3 -5 2 -12 -3 -15 -5 -3 -9 1 -9 9 0 17 3 19
12 6z m330 -501 c3 -6 -1 -7 -9 -4 -18 7 -21 14 -7 14 6 0 13 -4 16 -10z
m-1160 -299 c3 -5 2 -12 -3 -15 -5 -3 -9 1 -9 9 0 17 3 19 12 6z m-45 -321 c0
-5 -5 -10 -11 -10 -5 0 -7 5 -4 10 3 6 8 10 11 10 2 0 4 -4 4 -10z m2013 -695
c-7 -21 -12 -19 -10 4 0 11 5 18 9 15 4 -3 5 -11 1 -19z m32 -45 c3 -6 -1 -7
-9 -4 -18 7 -21 14 -7 14 6 0 13 -4 16 -10z m-54 -127 c13 -16 12 -17 -3 -4
-17 13 -22 21 -14 21 2 0 10 -8 17 -17z m-2271 -103 c0 -5 -5 -10 -11 -10 -5
0 -7 5 -4 10 3 6 8 10 11 10 2 0 4 -4 4 -10z m2885 -1770 c-3 -5 -12 -10 -18
-10 -7 0 -6 4 3 10 19 12 23 12 15 0z m26 -467 c13 -16 12 -17 -3 -4 -10 7
-18 15 -18 17 0 8 8 3 21 -13z m-4151 -327 c0 -3 -4 -8 -10 -11 -5 -3 -10 -1
-10 4 0 6 5 11 10 11 6 0 10 -2 10 -4z m-70 -1106 c0 -5 -6 -12 -12 -16 -7 -4
-10 -4 -6 1 4 4 3 14 -4 22 -8 11 -7 12 6 7 9 -3 16 -10 16 -14z m141 -407
c13 -16 12 -17 -3 -4 -10 7 -18 15 -18 17 0 8 8 3 21 -13z m89 -139 c0 -8 -5
-12 -10 -9 -6 4 -8 11 -5 16 9 14 15 11 15 -7z m2925 -374 c-3 -5 -12 -10 -18
-10 -7 0 -6 4 3 10 19 12 23 12 15 0z m-1821 -426 c3 -8 2 -12 -4 -9 -6 3 -10
10 -10 16 0 14 7 11 14 -7z m-344 -314 c0 -5 -5 -10 -11 -10 -5 0 -7 5 -4 10
3 6 8 10 11 10 2 0 4 -4 4 -10z m-3470 -1170 c0 -5 -5 -10 -11 -10 -5 0 -7 5
-4 10 3 6 8 10 11 10 2 0 4 -4 4 -10z m-96 -78 c3 -5 -1 -9 -9 -9 -8 0 -12 4
-9 9 3 4 7 8 9 8 2 0 6 -4 9 -8z m1926 -208 c0 -8 -19 -13 -24 -6 -3 5 1 9 9
9 8 0 15 -2 15 -3z m-2635 -284 c-3 -5 -12 -10 -18 -10 -7 0 -6 4 3 10 19 12
23 12 15 0z m1858 -361 c-15 -16 -22 -18 -28 -8 -5 7 -4 10 3 5 6 -3 16 3 22
15 7 11 14 18 18 15 3 -4 -3 -16 -15 -27z m-2543 -79 c0 -5 -5 -10 -11 -10 -5
0 -7 5 -4 10 3 6 8 10 11 10 2 0 4 -4 4 -10z m-1429 -927 c-8 -15 -10 -15 -11
-2 0 17 10 32 18 25 2 -3 -1 -13 -7 -23z m-66 -31 c-6 -4 -22 -18 -36 -30 -23
-20 -27 -21 -33 -7 -3 9 -2 13 4 10 6 -4 22 3 36 14 15 12 29 21 32 21 3 0 2
-3 -3 -8z m2575 -102 c0 -5 -2 -10 -4 -10 -3 0 -8 5 -11 10 -3 6 -1 10 4 10 6
0 11 -4 11 -10z"/>
<path d="M9230 12996 c0 -2 7 -6 15 -10 8 -3 15 -1 15 4 0 6 -7 10 -15 10 -8
0 -15 -2 -15 -4z"/>
<path d="M8813 12407 c0 -8 6 -14 14 -14 9 0 10 4 2 14 -6 7 -12 13 -14 13 -1
0 -2 -6 -2 -13z"/>
<path d="M8833 12175 c0 -8 4 -12 9 -9 5 3 6 10 3 15 -9 13 -12 11 -12 -6z"/>
<path d="M5956 11808 c3 -5 10 -6 15 -3 13 9 11 12 -6 12 -8 0 -12 -4 -9 -9z"/>
<path d="M10106 11788 c3 -5 10 -6 15 -3 13 9 11 12 -6 12 -8 0 -12 -4 -9 -9z"/>
<path d="M8815 11570 c-3 -5 -1 -10 4 -10 6 0 11 5 11 10 0 6 -2 10 -4 10 -3
0 -8 -4 -11 -10z"/>
<path d="M8804 11538 c-4 -6 -3 -8 4 -4 5 3 12 1 14 -6 3 -8 6 -9 11 -1 4 6 0
13 -8 17 -8 3 -17 0 -21 -6z"/>
<path d="M10536 10892 c-2 -4 -1 -14 4 -22 7 -11 9 -9 7 8 -1 24 -3 26 -11 14z"/>
<path d="M4950 10810 c0 -5 5 -10 11 -10 5 0 7 5 4 10 -3 6 -8 10 -11 10 -2 0
-4 -4 -4 -10z"/>
<path d="M10645 10561 c-3 -5 -2 -12 3 -15 5 -3 9 1 9 9 0 17 -3 19 -12 6z"/>
<path d="M10666 10535 c-3 -8 -1 -15 4 -15 6 0 10 7 10 15 0 8 -2 15 -4 15 -2
0 -6 -7 -10 -15z"/>
<path d="M10685 10420 c-3 -6 1 -13 9 -16 9 -3 13 -11 9 -17 -3 -6 -1 -7 5 -3
9 5 9 13 2 27 -12 22 -16 23 -25 9z"/>
<path d="M11060 10040 c-9 -6 -10 -10 -3 -10 6 0 15 5 18 10 8 12 4 12 -15 0z"/>
<path d="M7887 9073 c-4 -3 -7 -11 -7 -17 0 -6 5 -5 12 2 6 6 9 14 7 17 -3 3
-9 2 -12 -2z"/>
<path d="M11423 8355 c0 -8 4 -12 9 -9 5 3 6 10 3 15 -9 13 -12 11 -12 -6z"/>
<path d="M11430 8251 c0 -5 7 -11 14 -14 10 -4 13 -1 9 9 -6 15 -23 19 -23 5z"/>
<path d="M11440 7895 c0 -2 6 -8 13 -14 10 -8 14 -7 14 2 0 8 -6 14 -14 14 -7
0 -13 -1 -13 -2z"/>
<path d="M7210 7669 c0 -5 5 -7 10 -4 6 3 10 8 10 11 0 2 -4 4 -10 4 -5 0 -10
-5 -10 -11z"/>
<path d="M12953 7285 c0 -8 4 -12 9 -9 5 3 6 10 3 15 -9 13 -12 11 -12 -6z"/>
<path d="M11326 7063 c-6 -14 -5 -15 5 -6 7 7 10 15 7 18 -3 3 -9 -2 -12 -12z"/>
<path d="M1156 7008 c3 -5 10 -6 15 -3 13 9 11 12 -6 12 -8 0 -12 -4 -9 -9z"/>
<path d="M7148 6913 c7 -3 16 -2 19 1 4 3 -2 6 -13 5 -11 0 -14 -3 -6 -6z"/>
<path d="M790 6650 c0 -5 5 -10 11 -10 5 0 7 5 4 10 -3 6 -8 10 -11 10 -2 0
-4 -4 -4 -10z"/>
<path d="M10890 6245 c-11 -13 -10 -14 4 -9 9 3 16 10 16 15 0 13 -6 11 -20
-6z"/>
<path d="M7514 6009 c-4 -7 -3 -9 4 -5 5 3 13 0 15 -6 4 -9 6 -10 6 -1 1 17
-16 25 -25 12z"/>
<path d="M7565 5969 c-4 -6 -5 -12 -2 -15 2 -3 7 2 10 11 7 17 1 20 -8 4z"/>
<path d="M7556 5891 c-4 -5 -2 -12 3 -15 5 -4 12 -2 15 3 4 5 2 12 -3 15 -5 4
-12 2 -15 -3z"/>
<path d="M10046 5525 c-11 -8 -15 -15 -9 -15 6 0 16 7 23 15 16 19 11 19 -14
0z"/>
<path d="M8891 5284 c0 -11 3 -14 6 -6 3 7 2 16 -1 19 -3 4 -6 -2 -5 -13z"/>
<path d="M8467 5263 c-4 -3 -7 -11 -7 -17 0 -6 5 -5 12 2 6 6 9 14 7 17 -3 3
-9 2 -12 -2z"/>
<path d="M6406 5023 c-6 -14 -5 -15 5 -6 7 7 10 15 7 18 -3 3 -9 -2 -12 -12z"/>
<path d="M6085 4800 c-4 -6 -11 -7 -17 -4 -7 4 -8 2 -4 -5 6 -9 11 -9 22 0 14
11 18 19 10 19 -3 0 -8 -5 -11 -10z"/>
<path d="M4946 4028 c3 -4 9 -8 15 -8 5 0 9 4 9 8 0 5 -7 9 -15 9 -8 0 -12 -4
-9 -9z"/>
<path d="M7005 3960 c-3 -5 -1 -10 4 -10 6 0 11 5 11 10 0 6 -2 10 -4 10 -3 0
-8 -4 -11 -10z"/>
<path d="M4766 3888 c3 -5 10 -6 15 -3 13 9 11 12 -6 12 -8 0 -12 -4 -9 -9z"/>
<path d="M8836 3168 c3 -5 10 -6 15 -3 13 9 11 12 -6 12 -8 0 -12 -4 -9 -9z"/>
<path d="M8473 2805 c0 -8 4 -12 9 -9 5 3 6 10 3 15 -9 13 -12 11 -12 -6z"/>
<path d="M2803 2585 c0 -8 4 -12 9 -9 5 3 6 10 3 15 -9 13 -12 11 -12 -6z"/>
<path d="M2295 2259 c-4 -6 -5 -12 -2 -15 2 -3 7 2 10 11 7 17 1 20 -8 4z"/>
<path d="M1871 1977 c-13 -21 -12 -21 5 -5 10 10 16 20 13 22 -3 3 -11 -5 -18
-17z"/>
<path d="M1445 1710 c-4 -6 -11 -7 -17 -4 -7 4 -8 2 -4 -5 6 -9 11 -9 22 0 14
11 18 19 10 19 -3 0 -8 -5 -11 -10z"/>
<path d="M1383 1673 c0 -9 4 -10 14 -2 7 6 13 12 13 14 0 1 -6 2 -13 2 -8 0
-14 -6 -14 -14z"/>
<path d="M1315 1651 c-3 -5 -2 -12 3 -15 5 -3 9 1 9 9 0 17 -3 19 -12 6z"/>
<path d="M1040 1490 c-9 -6 -10 -10 -3 -10 6 0 15 5 18 10 8 12 4 12 -15 0z"/>
<path d="M3266 1018 c3 -5 10 -6 15 -3 13 9 11 12 -6 12 -8 0 -12 -4 -9 -9z"/>
<path d="M3170 970 c-9 -6 -10 -10 -3 -10 6 0 15 5 18 10 8 12 4 12 -15 0z"/>
<path d="M1355 630 c-4 -6 -1 -9 7 -8 7 2 12 -3 10 -10 -1 -8 2 -11 8 -7 8 5
7 11 -1 21 -14 17 -16 17 -24 4z"/>
<path d="M1394 598 c-4 -6 -3 -8 3 -5 11 7 37 -16 28 -25 -3 -2 2 -5 10 -5 12
0 10 6 -7 24 -25 27 -25 27 -34 11z"/>
<path d="M2536 582 c-3 -5 1 -9 9 -9 8 0 12 4 9 9 -3 4 -7 8 -9 8 -2 0 -6 -4
-9 -8z"/>
<path d="M1506 507 c3 -10 9 -15 12 -12 3 3 0 11 -7 18 -10 9 -11 8 -5 -6z"/>
<path d="M1530 501 c0 -5 7 -12 16 -15 8 -3 12 -11 8 -17 -5 -8 -3 -9 5 -5 9
6 8 13 -5 27 -19 21 -24 23 -24 10z"/>
</g>
</svg>
